<svg width="512" height="512" xmlns="http://www.w3.org/2000/svg">

 <g>
  <title>background</title>
  <rect fill="none" id="canvas_background" height="402" width="582" y="-1" x="-1"/>
 </g>
 <g>
  <title fill="#fed136">Layer 1</title>
  <path fill="#fed136" id="svg_2" d="m0,0l0,512l512,0l0,-512l-512,0zm489.471,489.475l-466.946,0l0,-466.946l466.945,0l0,466.946l0.001,0z"/>
  <path fill="#fed136" id="XMLID_82_" d="m143.872,290.521l-18.487,63.013c-0.3,2.172 -1.214,2.897 -3.03,2.897l-30.907,0c-2.12,0 -2.726,-1.085 -2.12,-3.624c16.363,-55.401 43.936,-147.748 63.33,-210.397c0.906,-3.62 1.816,-7.243 2.423,-19.919c0,-1.444 0.91,-2.17 1.816,-2.17l41.817,0c1.517,0 1.816,0.363 2.423,1.812c22.427,74.234 46.966,156.077 69.996,231.038c0.606,2.176 0,3.261 -1.816,3.261l-33.937,0c-1.517,0 -2.124,-0.726 -2.731,-2.175l-19.393,-63.735l-69.384,0l0,-0.001zm61.205,-35.486c-6.06,-24.265 -20.906,-73.15 -26.966,-98.5l-0.303,0c-4.543,23.901 -16.97,64.82 -26.06,98.5l53.329,0z"/>
  <path fill="#fed136" id="XMLID_79_" d="m317.957,276.894c0.619,27.081 15.137,46.329 46.338,46.329c11.432,0 25.333,-2.141 38.615,-8.911c0.927,-0.354 1.855,0 1.855,1.782l0,28.509c0,2.496 -0.62,3.206 -1.855,3.923c-12.047,7.125 -26.564,9.62 -46.338,9.975c-56.222,0 -76.611,-44.188 -76.611,-89.09c0,-50.961 26.262,-91.235 72.595,-91.235c45.415,0 63.642,39.915 63.642,73.06c0,15.321 -1.548,22.448 -2.782,23.521c-3.705,1.781 -15.444,2.137 -32.436,2.137l-63.023,0zm49.428,-27.44c11.432,0 13.286,-1.428 13.595,-2.855c0,-0.709 0,-2.491 0,-3.919c0,-10.688 -6.18,-33.854 -29.967,-33.854c-20.081,0 -30.585,17.82 -33.056,40.628l49.428,0z"/>
 </g>
</svg>