<svg width="512" height="512" xmlns="http://www.w3.org/2000/svg">

 <g>
  <title>background</title>
  <rect fill="none" id="canvas_background" height="402" width="582" y="-1" x="-1"/>
 </g>
 <g>
  <title>Layer 1</title>
  <path fill="#fed136" id="svg_2" d="m0,0l0,512l512,0l0,-512l-512,0zm489.471,489.475l-466.946,0l0,-466.946l466.945,0l0,466.946l0.001,0z"/>
  <path fill="#fed136" id="XMLID_130_" d="m176.932,291.444l-18.483,61.291c-0.303,2.115 -1.214,2.821 -3.03,2.821l-30.906,0c-2.12,0 -2.722,-1.061 -2.12,-3.522c16.363,-53.897 43.932,-143.719 63.32,-204.66c0.911,-3.521 1.821,-7.045 2.423,-19.374c0,-1.408 0.911,-2.113 1.821,-2.113l41.812,0c1.512,0 1.816,0.352 2.422,1.761c22.415,72.211 46.958,151.822 69.984,224.737c0.606,2.111 0,3.172 -1.816,3.172l-33.937,0c-1.512,0 -2.119,-0.706 -2.722,-2.117l-19.394,-61.995l-69.374,0l0,-0.001zm61.196,-34.52c-6.06,-23.602 -20.906,-71.154 -26.961,-95.813l-0.304,0c-4.547,23.248 -16.966,63.054 -26.056,95.813l53.321,0z"/>
  <path fill="#fed136" id="XMLID_137_" d="m334.89,139.208c0,-13.032 8.633,-21.838 20.239,-21.838c12.205,0 19.649,8.806 19.649,21.838c0,13.387 -8.038,21.839 -19.945,21.839c-11.91,0 -19.943,-8.452 -19.943,-21.839zm2.081,47.906c0,-2.114 0.594,-2.817 2.085,-2.817l31.552,0c1.785,0 2.384,0.353 2.384,2.817l0,165.557c0,1.766 -0.599,2.817 -2.384,2.817l-30.958,0c-1.787,0 -2.68,-0.702 -2.68,-3.168l0,-165.206l0.001,0z"/>
 </g>
</svg>