<?xml version="1.0" encoding="utf-8"?>
<!-- Generator: Adobe Illustrator 24.0.0, SVG Export Plug-In . SVG Version: 6.00 Build 0)  -->
<svg version="1.1" id="Layer_3" xmlns="http://www.w3.org/2000/svg" xmlns:xlink="http://www.w3.org/1999/xlink" x="0px" y="0px"
	 viewBox="0 0 2488 2500" style="enable-background:new 0 0 2488 2500;" xml:space="preserve">
<style type="text/css">
	.st0{fill:#FED136;}
</style>
<g id="AWS">
	<path class="st0" d="M746.6,1181.8c-9.7-19-18.4-38.4-26.1-58.3c-6.2-23.6-9.1-47.8-8.7-72.2l0,0V790.5
		c6.4-74.4-18.5-148.2-68.7-203.5c-59.5-48.7-135.6-72.4-212.2-66.1c-42.5-0.3-84.9,5-126.1,15.7c-36.6,8.6-71.9,21.8-105.2,39.1
		c-8.8,4-16.5,10-22.6,17.4c-4.2,8.6-6,18.3-5.2,27.8v40c0,16.5,5.2,25.2,16.5,25.2h13l31.3-12.2c28.4-11.1,57.4-20.4,87-27.8
		c28.5-6.7,57.7-10.2,87-10.4c47.2-4.8,94.5,8.5,132.2,37.4c28.9,36.7,42.3,83.2,37.4,129.6v59.1c-32.2-7.8-62.6-13.9-93.1-18.3
		c-28.8-3.7-57.9-5.8-87-6.1c-71-3.9-140.9,18.4-196.5,62.6c-49,40.9-76.4,102.3-73.9,166.1c-2.8,58,19,114.6,60,155.7
		c43.6,41.7,102.4,63.7,162.6,60.9c92.3,1.4,180.1-39.6,238.3-111.3c7.5,16.4,15.9,32.4,25.2,47.8c8.2,13.4,17.9,26,28.7,37.4
		c6.3,6.9,15,10.9,24.4,11.3c7.5,0.1,14.9-2.3,20.9-7L737,1227c13.9-6.7,19.7-23.3,13-37.1c-0.9-2-2.1-3.8-3.5-5.5L746.6,1181.8z
		 M578.8,985.3c0.5,23.7-2.1,47.4-7.8,70.4c-3.8,19.2-11.8,37.3-23.5,53c-20.8,23.5-47.1,41.4-76.5,52.2c-28,9.4-57.4,14.1-87,13.9
		c-66.2-2.8-117.6-58.7-114.8-125c1.4-32,15.5-62.2,39.2-83.8c35.4-23.6,77.6-34.6,120-31.3c25.2,0,50.4,0,76.5,4.3
		s50.4,8.7,73.9,13.9L578.8,985.3z M982.3,1221.8c2.5,12,8.2,23.1,16.5,32.2c9.3,6,20.3,8.7,31.3,7.8h69.6c11.3,1,22.6-1.7,32.2-7.8
		c8.3-9.3,13.7-20.7,15.7-33l124.4-521.8L1398,1221c1.1,12.1,6.3,23.5,14.8,32.2c9.6,6.8,21.3,9.9,33,8.7h69.6
		c10.8,0.6,21.5-2.5,30.4-8.7c8.7-8.5,14.8-19.4,17.4-31.3L1765,596.5c3-6.3,4.7-13.1,5.2-20c0.4-4.3,0.4-8.7,0-13
		c1.6-9.5-4.8-18.4-14.3-20c-1.9-0.3-3.8-0.3-5.7,0h-75.7c-11-0.3-21.8,2.4-31.3,7.8c-7.7,9-13.1,19.8-15.7,31.3l-140.9,542.7
		L1357.1,587c-1.5-11.7-6.7-22.7-14.8-31.3c-9.9-6.1-21.5-8.8-33-7.8h-66.1c-22.2-3.9-43.4,11.1-47.2,33.3c-0.3,1.9-0.5,3.9-0.6,5.8
		l-126.1,532.2L934.5,587c-2.5-11.6-7.9-22.4-15.7-31.3c-9.5-6.2-20.9-9-32.2-7.8h-78.3c-13,0-19.1,7-19.1,20
		c0.7,11,3.1,21.9,7,32.2L982.3,1221.8z M1852,1236.6c29.4,15,60.7,25.8,93.1,32.2c40.8,9.7,82.5,14.6,124.4,14.8
		c39.5,0.1,78.8-5.7,116.5-17.4c31.7-9.2,61.3-24.5,87-45.2c24.7-19.1,44.9-43.5,59.1-71.3c14.3-29.2,21.5-61.4,20.9-93.9
		c0.6-40.8-12.6-80.6-37.4-113.1c-30.2-36.5-70.4-63.4-115.7-77.4L2085,828.7c-31.8-8.9-61.4-24.3-87-45.2
		c-15.8-14.9-24.6-35.7-24.4-57.4c-1.6-29.3,13.1-57.1,38.3-72.2c31.3-15.6,65.9-23.3,100.9-22.6c53.6-1,106.8,10,155.7,32.2
		c9.5,4.9,19.8,8.1,30.4,9.6c12.2,0,19.1-8.7,19.1-26.1v-38.3c0.6-9.4-2.2-18.6-7.8-26.1c-6.3-8.9-14.6-16-24.4-20.9
		c-10.9-5.8-22.2-10.8-33.9-14.8c-14.8,0-29.6-8.7-46.1-12.2l-52.2-9.6h-54.8c-34.4-0.6-68.6,3.8-101.8,13
		c-31.4,8.7-60.8,23.2-87,42.6c-24,17.5-43.9,40.1-58.3,66.1c-14.5,26.7-22,56.6-21.7,87c0.4,42.4,14.4,83.6,40,117.4
		c33.5,40.4,78.8,69.3,129.6,82.6l117.4,36.5c30.3,6.8,58.5,21.2,81.7,41.7c14.8,15.1,22.9,35.4,22.6,56.5
		c0.9,31.6-15.4,61.3-42.6,77.4c-36.3,19.5-77.2,28.5-118.3,26.1c-32.4,0.2-64.8-3-96.5-9.6c-29.9-6.1-59.1-15.4-87-27.8l-20-8.7
		h-14.8c-12.2,0-19.1,8.7-19.1,25.2v44.4c0.1,7.8,1.9,15.5,5.2,22.6c7.4,8.6,17,14.9,27.8,18.3H1852z"/>
	<path class="st0" d="M2184.2,1615.8c-289.7,122-600.5,186.1-914.9,188.7C846.4,1804,431,1693.4,63.9,1483.6
		c-29.6-17.4-52.2,13-27.8,35.7c330.9,298.4,761.5,462.2,1207.1,459.2c351.5,1.2,695.2-103.6,986.2-300.9
		c41.7-33,3.5-81.7-40.9-61.7H2184.2z"/>
	<path class="st0" d="M2445.1,1463.6c-28.7-35.7-279.2-67-434.8,40c-23.5,17.4-19.1,40,6.1,36.5c87-10.4,278.3-33,312.2,10.4
		c33.9,43.5-38.3,223.5-70.4,304.4c-9.6,23.5,11.3,33.9,33,14.8c152.2-120,189.6-369.6,160-406.1H2445.1z"/>
</g>
</svg>
