<?xml version="1.0" encoding="utf-8"?>
<!-- Generator: Adobe Illustrator 24.0.0, SVG Export Plug-In . SVG Version: 6.00 Build 0)  -->
<svg version="1.1" id="Layer_3" xmlns="http://www.w3.org/2000/svg" xmlns:xlink="http://www.w3.org/1999/xlink" x="0px" y="0px"
	 viewBox="0 0 2488 2500" style="enable-background:new 0 0 2488 2500;" xml:space="preserve">
<style type="text/css">
	.st0{display:none;}
	.st1{fill:#FED136;}
</style>
<path class="st0" d="M1696.3,859.6l-0.5-5.2l-8.5,0.7l0.5,5.2L1696.3,859.6z M1753.4,996.8l0.2,2.9l6-0.5c-0.2-1.8,0.5-4.7,1.8-8.3
	l-0.5-5.2C1758.2,985.7,1755.7,989.5,1753.4,996.8z M1530.8,1169.5c-0.4-4.9-15.5-23.8-45.5-57.2c-0.5-6.1,9.7-15.3,30.9-27.4
	l60.3-52.5c13.5-17.1,21.5-44.9,23.8-83.6l-0.7-8.8c-2.3-26.7-21.7-48.2-58.3-64.6c-21.7-14.6-60.6-22.7-116.9-24.2
	c-46.6,4-107.4,20.6-182.3,50c-20.6,14.8-44,29.6-70.4,44.4l0.4,4.5c1.6-0.2,4.2-1.1,7-3.1c3.1-0.4,4.9,1.1,5.1,4l4.5-2.3l2.2-0.2
	l0.2,2c0.2,2.3-16.1,15.2-48.9,38.1l2.5,4.7l-2.2,0.2l-5.4-2c0.2,1.6-2.2,2.7-6.7,3.1l0.2,2l5.2,6.5c-1.6,0.2-4.2-0.5-7.6-1.8
	c-7.6,0.7-15,4.7-22.4,12.3l3.1-13.4c11-47.5,18.6-89.5,22.6-126l-0.5-2.3c-7.6-4.9-15-11.7-21.8-20.4c0.2-5.6,0.2-8.8,0-9.6l-0.5-2
	l-2.2,0.5c-23.8,35.7-69.7,96.7-137.7,183c-51.8,61.4-78.5,95.5-80.1,102.3c-21.1,21.8-31.2,35-30.1,39.5c-5.6,3.6-7.9,7.2-7,11.2
	c-1.6,0.4-2.7-0.2-3.1-1.8c-9,14.6-22.4,24-40.2,28.2l-18.8,4.3c-2.5,0.5-3.8,2.3-3.6,5.4l0.5,2.3l7-1.6l0.5,2l-15.9,6.1l-28.2,6.5
	l-14.8,0.9c-2.2,2.2,11.7-0.2,6.3,1.1l-18.4,4.3c-11.2,2.5-17.3,1.6-18.4-2.9l-2.2,0.5c0.4,2,0.5,3.4,0.2,4.7l-1.1-4.5l-14.8,3.4
	c-1.1-6.9-21.1-31.8-59.9-74.7c-0.7-8.3,13-20.4,41-36.1l79-69.5c17.7-22.7,28.2-59.2,31.6-109.4l-1.1-11.7
	c-3.1-35.4-28.7-63.9-76.9-85.9c-28.5-19.3-79.8-29.6-153.8-31.2c-61.4,5.2-141.5,27.1-240,65.1c-27.1,19.7-57.9,39.2-92.6,58.5
	l0.5,6.1c2.3-0.2,5.4-1.4,9.2-3.6c4-0.4,6.1,1.4,6.5,5.1l6.1-3.4l3.1-0.2l0.2,2.9c0.2,2.9-21.3,19.7-64.8,50.3l3.4,5.4l-3.1,0.2
	l-6.7-2.3c0.2,1.8-2.9,3.1-9.2,3.6l0.4,3.2l7.2,7.9c-2.3,0.2-5.6-0.5-9.7-2c-14.1,1.3-27.8,11.4-41.3,30.5l3.4,5.4
	c11.7-10.8,18.6-16.2,20.6-16.4l0.7,8.8c-2,0.2-5.1,1.4-9.2,3.6l7.4,11.2c14.3-15.3,30-28.5,47.1-39.5c8.5,2.2,13,4.9,13.2,7.8
	l6.5-0.5C252,990,298,965.1,343.6,949.8l0.5,6.1c-8.5,12.6-14.3,19.1-17.3,19.5c0.4,4.3,1.8,8.1,4.5,11.4
	c0.7,7.8-20,60.1-62.1,156.8c-95.5,224.9-175.6,391.2-240.7,498.8c0.2,2.2,1.4,5.1,3.8,8.7c16.1-3.8,26.2-7.8,30.5-11.5l3.4-0.4
	l0.5,6.1l6-0.5l6.1-3.4c0.2,1.8,2.2,2.7,6.3,2.3l0.5,6.1c0.5,6-2.9,15-10.1,27.4c-6.5,7.4-13.5,22.9-20.9,46.6l0.2,2.9l6-0.5
	c26-29.1,45.7-57.6,59.2-85.4c75.8-22.2,133.5-44,173.6-65.5c40.2-3.4,70.9-14.1,91.9-31.6l-0.4-3.2l-15.2,4.5l-3.4,0.4l-0.4-3.2
	c29.6-4.5,50-11,61.4-20c57.6-44.4,101.1-75.8,130.5-94.4c60.5-44.4,99.8-87.7,117.7-129.8c3.2-0.7,6.5-1.4,10.1-2.3
	c8.5-0.4,13.2-0.5,14.4-0.9c-0.4-1.6,0.4-2.5,2-2.9c13.5-1.4,7,0.9,15.7-1.1l22.7-5.2c-1.4,0.4-2,1.1-1.6,2.5l3.4-2.2
	c-0.7,0-1.3-0.2-1.8-0.4l3.8-0.9l-1.8,1.1c2.5,0.4,5.2,0.2,8.3-0.5l1.6,6.7l-103.4,164.4l-22.9,28.7l-11.2,37.5l2.2-0.5l11.2-4.7
	l-3.6,14.6l1.1,4.3l3.1,3.8c-1.4,0.4-2,1.3-1.6,2.9l0.5,2.3l4.7-1.1c6.9-6,9.7-11.4,8.7-16.2c7.4,1.3,12.3,1.8,14.8,1.1l0.5,2.3
	c-4.5,1.1-6.9,4.7-7.2,10.8l0.5,2.3l2.5-0.5c37.5-41,129.6-181.2,203.4-276.3c-2.3-10.3,36.1-24.5,115.5-43l2.5-0.5
	c2.9,12.5-3.2,42.6-18.4,90.4c-9.7,28.9-14.4,44.8-13.7,47.3c-12.6,38.4-18.6,59.2-17.9,62.4l-28.2,92.2
	c-18.2,47.3-32.1,96.9-41.9,149.2c1.6-0.4,4.2-0.2,7.8,0.7l4-3.4c0.4,1.6,1.4,2.2,3.1,1.8l-1.6-6.7l12.3-0.4
	c3.6-0.9,6.7-5.4,9.2-13.7c-0.5-12.5,2-19.1,7.6-20.6c7.6-29.6,12.3-44.4,13.9-44.9c7-29.4,12.3-46.2,15.7-50.3
	c10.6-38.3,18.4-57.9,23.5-59.2l1.1,4.7l-7.8,20c-13.5,60.1-27.3,107.6-41.1,142.4l4,17.3l2.5-0.5c33.6-72.2,81.9-215.1,144.9-428.8
	c1.8-18.8,10.8-33.4,26.9-43.7l-3.6-3.8l-0.5-2c7.2-1.6,12.3-4.5,15.2-8.5c-0.4-1.6-6.7-4-18.9-7.2l31.4-134.6
	c6.9-6.1,10.8-9.4,12.1-9.4l0.5,6.9c-1.6,0.2-4.2,1.1-7,3.1l6,8.5c10.8-11.7,22.6-21.8,35.4-30.3c6.5,1.8,9.7,4,10.1,6.1l4.7-0.4
	c35.7-26.2,70.7-44.9,105.2-56.3l0.4,4.5c-6.3,9.6-10.6,14.4-13,14.6c0.4,3.2,1.3,6.1,2.9,8.7c0.5,6-15,45.7-46.7,119.3
	c-72.5,170.5-133.4,296.7-182.8,378.6c0.2,1.6,1.3,3.8,3.2,6.7c12.1-2.9,19.9-6,22.9-8.8l2.2-0.2l0.4,4.5l5.1-0.4l4.5-2.3
	c0.2,1.3,1.8,1.8,4.9,1.6l0.4,4.9c0.4,4.3-2.2,11.2-7.8,20.6c-5.2,5.6-10.6,17.3-16.4,35.2l0.2,2.3l4.7-0.4
	c19.7-22,34.6-43.7,44.9-65c57.6-17,101.4-33.4,131.7-49.6c30.9-2.7,54.1-10.6,70-24l-0.2-2.3l-11.7,3.4l-2.5,0.2l-0.2-2.3
	c22.4-3.2,38.1-8.3,46.6-15c43.7-33.6,76.7-57.6,99.1-71.6C1502.3,1264.9,1534.8,1216.2,1530.8,1169.5L1530.8,1169.5z
	 M1518.9,1172.5l1.6,18.2c-2.2,4.5-4.5,6.9-6.7,7l-2.7-31C1516.2,1168.6,1518.8,1170.4,1518.9,1172.5z M152.4,1025.6l-3.1,0.2
	l-0.5-5.6l12.5-1.1l0.2,2.9C159.5,1022.2,156.4,1023.3,152.4,1025.6z M91.6,1634c-7.2-3.2-13.7-4.5-19.3-4l-0.7-8.8
	c-0.4-3.4,1.6-5.8,6-6.7c4-0.4,6.3,2.5,6.7,8.3c10.5-12.8,16.2-19.3,17.3-19.5l6.7,2.7C106.1,1624.1,100.5,1633.3,91.6,1634
	L91.6,1634z M741.5,954.2c-3.1,0.4-9.2-9.2-18-28.2l-0.5-5.6c5.8-0.5,11.7,8.8,18,28.2L741.5,954.2z M732.8,886.8l-2.5,6L642,856
	C700.9,858,731.2,868.3,732.8,886.8L732.8,886.8z M360.2,1206.8l-12.5,1.1l-0.5-5.6l12.5-1.1L360.2,1206.8z M350.1,1014.6l3.1-0.2
	l0.7,8.8c-2.9,0.2-6.7,4.5-11.4,12.8l-0.5-6.1C347.5,1023.3,350.4,1018.2,350.1,1014.6L350.1,1014.6z M323.9,1076.3l1.1,11.7
	l-3.1,0.2l-1.1-11.7L323.9,1076.3z M310.2,1098.4l6-0.5c-0.5,9.7-3.2,15-8.1,15.3l-3.1,0.2C308.7,1106.8,310.5,1101.8,310.2,1098.4
	L310.2,1098.4z M299.9,1129l3.4-0.4l0.2,2.9l-5.6,9.4l-6,0.5l-0.2-2.9C297.7,1138.1,300.4,1135,299.9,1129z M289.8,1156.6l-1.8,14.8
	l-3.1,0.2l-1.3-14.6L289.8,1156.6L289.8,1156.6z M188.5,1444.5c-4,20.2-8.3,30.5-12.8,30.9l-0.2-2.9
	C174.5,1462.5,178.8,1453.2,188.5,1444.5L188.5,1444.5z M169.9,1484.7l0.2,2.9c0.4,4-1.4,6.3-5.4,6.5l-0.2-2.9
	C164.2,1487.8,166,1485.6,169.9,1484.7z M164.5,1568.3l9.4-0.9l0.4,3.2c-2.3,0.2-5.4,1.4-9.2,3.6l-6,0.5
	C158.8,1571.7,160.7,1569.4,164.5,1568.3L164.5,1568.3z M431.6,1485.8c-52.7,26-83.7,43.7-92.9,52.9c-57,19.9-85.4,32.1-84.8,37
	c-50.7,20-84.1,34.8-100.2,44c-3.8,0.4-9.2-1.1-16.4-4.3c-0.9-10.3,3.8-18.6,13.7-25.3c8.8-0.7,17.3,0.5,25.4,4
	c9.4-4.9,25.8-10.3,49.1-16.1l-0.5-6.1l-18.8,1.6c2.3-3.2,20.4-11.7,54.3-25.4l9.4-0.9l0.2,2.9c-16.1,1.4-24.9,6.1-26.9,14.6
	c0.4,3.8,2.5,5.4,6.5,5.1c12.1-7.6,18-12.1,17.9-13.4c22.9-4.3,86.3-37.5,190-99.4l0.5,5.6C458.3,1465.2,449.5,1472.8,431.6,1485.8
	L431.6,1485.8z M272.5,1538.1c15.2-1.3,28.2-7.4,39-18c4.3-0.4,6.7,1.3,6.9,5.1c-7.4,0.7-21.7,6.9-42.4,18.8l-3.1,0.2L272.5,1538.1
	L272.5,1538.1z M529.3,1340.9l-79.6,63c-59.2,38.8-91,58.3-95.5,58.7c-94.2,51.8-152.9,78.7-175.6,80.7l-3.4,0.4
	c2.9-10.6,44.8-96.4,126-257.7c35.7-3.1,92-19.7,168.7-50l18.8-1.6c38.8-3.4,67.9,4.2,87,22.2l1.1,11.7
	C562.3,1309.7,546.4,1333.9,529.3,1340.9L529.3,1340.9z M373.7,1253.4l12.8-1.1l0.2,2.9l-12.8,1.1L373.7,1253.4z M553.6,1222.9
	l9.4-0.9c8.7,4.2,13.2,7.8,13.5,11l0.2,2.9C568.4,1236.6,560.7,1232.3,553.6,1222.9L553.6,1222.9z M579.1,1078
	c-8.3,9.9-31,26.9-68.2,50.7c-12.3,1.1-57.9,18.8-137,53.4c-4-1.8-8.1-2.5-12.6-2.2l-0.5-5.6c-0.9-11.4,4.2-25.6,15.3-43
	c6.1-32.5,12.8-51.1,20.2-55.6l65.9-148.2c-0.7-9.2,13.4-16.2,42.2-21.1l9.4-0.9l0.7,8.5c28.3-4.3,46-6.9,52.9-7.4
	c52.3-4.5,79.6,6.1,81.8,31.6l6-0.5l-1.3-15l6.5-0.5c15.3,8.5,23.6,18.8,24.7,30.9c0.7,8.3-3.8,18.6-13.4,30.9
	c-4,0.4-6.3-2.5-6.7-8.3l-6.5,0.5l-1.4,18c-26.5,39.7-45.8,60.1-57.7,61.2C588.4,1070.4,581.8,1077.8,579.1,1078z M619.5,1181.7
	c-5.4-3.6-9.7-5.2-13-5.1l-0.7-8.8l6-0.5l13.2,7.8C625.4,1179.2,623.6,1181.4,619.5,1181.7L619.5,1181.7z M661.4,1231.4
	c5.8,2.3,9.2,4.9,9.9,7.2l-2.9,0.7l0.2,0.2c-0.5,0-1.3,0.2-1.8,0.4l-4.3,3.4L661.4,1231.4z M665.3,1256.3l-0.5-2.3l7.6-1.8l0.5,2.3
	L665.3,1256.3z M683.6,1276.7c7.8-1.3,11.5-1.8,26-5.1l0.5,2.3l-27.4,6.3C683,1279,683.4,1277.7,683.6,1276.7L683.6,1276.7z
	 M710.3,1288c-11.5,1.1-9-0.4-27.4,3.8l-0.5-2.3l22.9-7.4l11-2.5l1.1,4.3C712.4,1285,716,1285,710.3,1288L710.3,1288z M734.6,1282.2
	c-2.7,0.7-4.9-0.5-6.1-3.6l7-1.6c3.1-0.7,5.1,0.5,5.8,3.6L734.6,1282.2z M800.7,1211.1l-0.5-2.3l11.4-2.7l1.1,4.3L800.7,1211.1z
	 M871.2,1643.9c0.7-3.2,0.9-5.6,0.5-7.2l2.5-0.5c3.1-0.7,4.9,0.4,5.6,3.2l0.5,2.3L871.2,1643.9z M920.7,1229.7l-5.1-0.9
	c-8.1,3.2-15,5.6-20.6,6.9l-4.7,1.1c-2.7,0.7-4.9-0.4-6-3.2l33-7.6l10.8-5.1l3.6,4.2C926.6,1226.1,922.9,1227.7,920.7,1229.7z
	 M946.1,1221.6l-0.5-2.3c1.6-0.4,3.8-1.6,6.1-4l23.5-5.4l0.5,2.3C963.3,1215.3,953.4,1218.4,946.1,1221.6z M949.7,1174.2
	c-1.6,0.4-3.8,1.8-6.5,4c-0.4-1.6-3.6-1.6-9.7-0.2c-1.1-4.5,16.2-10.8,52.2-19.1l5.1-1.1l1.1,4.3
	C966.5,1169.5,952.4,1173.6,949.7,1174.2z M1012.9,1105.9c-2.5,28.7-12.6,44.9-30.5,49.1l-0.5-2.3l-15.9,6.1l-7,1.6
	c-3.6,0.9-6.9,0.7-9.7-0.2l-1.4-6.3c-0.5-2.3,22.4-34.1,68.9-95.1l5.4,0.9C1024.1,1068,1021,1083.4,1012.9,1105.9z M1124.6,1010.3
	l-2.2,0.2l-0.4-4.5l9.4-0.9l0.2,2.3C1130,1007.8,1127.7,1008.7,1124.6,1010.3L1124.6,1010.3z M1078.6,1472.5
	c-5.4-2.5-10.3-3.6-14.4-3.2l-0.5-6.9c-0.2-2.3,1.3-4,4.3-4.9c3.1-0.4,4.9,1.8,5.2,6.5c7.8-9.9,12.1-15,13-15l4.9,2
	C1089.2,1464.7,1085.1,1471.9,1078.6,1472.5L1078.6,1472.5z M1572,956.3c-2.3,0.2-6.9-7-13.9-21.7l-0.4-4.5
	c4.5-0.4,9.2,6.7,13.9,21.1L1572,956.3z M1565.5,904.7l-2.2,4.7l-66.8-28C1541.1,882.9,1564.2,890.6,1565.5,904.7z M1282.3,1147.8
	l-9.4,0.9l-0.4-4.5l9.4-0.7L1282.3,1147.8z M1274.6,1001.8l2.5-0.2l0.5,6.9c-2.3,0.2-5.2,3.4-8.7,9.7l-0.4-4.5
	C1272.8,1008.5,1274.8,1004.5,1274.6,1001.8L1274.6,1001.8z M1254.9,1048.7l0.7,8.8l-2.5,0.2l-0.7-8.8L1254.9,1048.7z
	 M1244.3,1065.5l4.7-0.4c-0.5,7.6-2.5,11.5-6,11.9l-2.5,0.2C1243.2,1072.2,1244.4,1068.2,1244.3,1065.5L1244.3,1065.5z
	 M1236.7,1088.6l2.2-0.2l0.2,2.3l-4.2,7.2l-4.7,0.4l-0.2-2.3C1234.9,1095.6,1237,1093.1,1236.7,1088.6L1236.7,1088.6z
	 M1229.1,1109.5l-1.6,11.5l-2.2,0.2l-0.9-11.4L1229.1,1109.5L1229.1,1109.5z M1152,1328.4c-3.1,15.2-6.3,22.9-9.7,23.3l-0.2-2
	C1141.6,1342.2,1144.8,1334.9,1152,1328.4z M1137.8,1358.9l0.2,2c0.4,3.2-1.1,5.1-4.3,5.2l-0.2-2.3
	C1133.3,1361.5,1134.7,1359.8,1137.8,1358.9z M1133.8,1422.5l7.2-0.5l0.2,2.3c-1.6,0.2-4.2,1.1-7,2.7l-4.7,0.4
	C1129.3,1424.8,1130.7,1423.2,1133.8,1422.5z M1336.5,1359.8c-39.7,19.7-63.3,33-70.7,39.9c-43.3,15.2-64.8,24.5-64.4,28.3
	c-38.4,15.3-63.7,26.3-75.6,33.4c-2.9,0.2-7-0.9-12.5-3.4c-0.7-7.8,2.9-14.1,10.5-18.8c6.9-0.5,13.4,0.4,19.3,2.9
	c7.2-3.6,19.7-7.6,37.4-12.1l-0.4-4.5l-14.8,1.1c1.8-2.5,15.7-9,41.5-19.5l7.2-0.5l0.2,2c-12.3,1.1-19.1,4.7-20.6,11.2
	c0.2,2.9,2,4.3,5.1,4c9-6,13.4-9.4,13.4-10.5c17.3-3.1,65.3-28.3,144.2-75.6l0.4,4.5C1356.7,1344.1,1350,1349.9,1336.5,1359.8
	L1336.5,1359.8z M1215.6,1399.6c11.7-1.1,21.7-5.6,30-13.5c3.1-0.4,4.9,1.1,5.1,4c-5.4,0.5-16.1,5.1-32.1,13.7l-2.5,0.2
	L1215.6,1399.6L1215.6,1399.6z M1410.8,1249.6l-60.1,48.4c-44.9,29.4-69.3,44.2-73.1,44.6c-71.5,39.3-115.9,59.7-133.4,61.2
	l-2.5,0.2c2.2-8.1,34.1-73.3,95.8-195.6c26.9-2.3,69.5-15.2,128-38.3l14.6-1.3c29.4-2.5,51.4,3.2,65.9,17.1l0.7,8.8
	C1435.7,1225.8,1423.8,1244,1410.8,1249.6L1410.8,1249.6z M1292.8,1183.2l9.4-0.9l0.2,2.3l-9.4,0.9L1292.8,1183.2z M1429.4,1159.9
	l7.2-0.5c6.7,3.2,10.1,6.1,10.3,8.5l0.2,2C1440.8,1170.4,1434.8,1167.1,1429.4,1159.9L1429.4,1159.9z M1448.4,1050
	c-6.3,7.6-23.5,20.6-51.4,38.6c-9.4,0.9-44,14.3-103.9,40.2c-2.9-1.1-6.1-1.4-9.6-1.3l-0.4-4.5c-0.7-8.7,3.1-19.5,11.4-32.7
	c4.7-24.9,9.9-38.8,15.3-42l50.3-112.6c-0.5-6.7,10.1-12.1,31.8-16.2l7.2-0.5l0.5,6.9c21.3-3.4,34.6-5.4,40.1-6
	c39.7-3.4,60.5,4.5,62.1,24l4.7-0.4l-0.9-10.8l4.7-0.4c11.5,6.3,17.7,13.9,18.4,22.9c0.5,6.5-2.7,14.4-9.6,23.6
	c-3.1,0.4-4.9-1.8-5.2-6.5l-4.7,0.4l-1.4,13.5c-20,30.5-34.6,46.2-43.9,46.9C1455.8,1044.2,1450.7,1049.8,1448.4,1050L1448.4,1050z
	 M1469.5,1125.1l-0.5-6.9l4.7-0.4l10.1,6.1c0.2,2.9-1.3,4.5-4.3,4.9C1475.1,1126.1,1471.8,1124.9,1469.5,1125.1L1469.5,1125.1z
	 M629.4,1563.4l-4.7,1.1l-4,3.4c0.7,2.9,2.5,4,5.6,3.2c3.1-0.7,4.3-2.5,3.6-5.4L629.4,1563.4z M611.5,1527.9l0.5,2.3
	c3.1-0.7,4.3-2.5,3.6-5.4l-0.5-2.3C612.3,1523.2,611,1525,611.5,1527.9z M738.6,1225.6l5.4-1.3l-1.1-4.7l-5.4,1.3L738.6,1225.6z
	 M2376.1,1363.1c-54.9,12.3-61.7,10.1-73.3,11l0.4,4.5l5.1-0.4l2.7-0.2l-0.7-0.5l6-2.3c54.3-6,60.6-3.8,60.1-9.9L2376.1,1363.1
	L2376.1,1363.1z M2080.7,1402.3l0.4,4.5h0.7l-0.4-4.5H2080.7z M2046.8,1283.3l-4.9-1.6c-4,10.6-6,17-5.8,18.8l0.2,2
	C2040.1,1302.3,2043.5,1295.8,2046.8,1283.3L2046.8,1283.3z M2387.3,1362.2l0.4,4.5l7.9,1.4l-0.4-4.5L2387.3,1362.2z M2013.9,1407.9
	l-12.3-1.4l-2.2,4.7l0.2,2.3l73.1-6.1l-0.4-4.5L2013.9,1407.9z M1980.7,1247.8l-0.2-2.3l-2.5,0.2l-4.5,2.9l2.5,4.3
	C1979.5,1252.5,1981.1,1250.8,1980.7,1247.8L1980.7,1247.8z M2422,1329l3.4-0.4c2-0.2,2.9-1.8,2.7-4.7l-2-4.3
	c-12.5,1.1-18.2,1.6-28.3,7.2l-0.2-2.3l-15,1.4c-0.4-4.5-1.6-6.9-3.6-6.7l-7.8,0.7c-9,0.7-13.4,0.4-17.9,3.8
	c-0.2-1.6-0.7-2.3-1.6-2.3l-8.7,0.7l-5.1,2.9c-0.2-1.6-0.7-2.3-1.6-2.3l-3.1,2.7l-0.2-2.3l-12.1-0.9l-2.9,0.2l0.4,4.5l6.1,1.6
	l5.8-0.4c2,1.3,4.2,1.6,6.7,1.4l5.1-2.5l0.2,2c-28.3,7-28.2,5.8-47.6,9c-2.2-1.4-3.8-2.2-4.9-2l-0.4,0.4c-2.2-0.2-3.4-1.6-3.6-4
	l10.1-1.3c0.7,0,1.3,0.7,6.9,1.8c8.1-4,8.5-5.6,12.8-6l-0.4-4.5c-27.8,5.4-16.6,1.8-51.4,4.9l-1.6,0.2l-0.4-4.5
	c44.8-5.4,29.8-2.3,45.1-6.7c0.2,1.6,0.7,2.3,1.6,2.3c1.8-1.8,3.8-2.7,6.1-3.1l3.1-0.2c15.7-1.3,20.9,1.8,52-6.9l0.2,2l5.1-2.5
	l4.7-0.4c-0.4-4.5,6.5-5.2,8.8-5.4l-0.4-4.9c-54.5,11-68.8,7.9-83.9,12.3l-0.2-2c-14.3,2.5-14.8,1.4-18.4,1.6
	c-1.1,0.2-2.7,1.1-4.5,2.9c-0.2-1.6-0.7-2.3-1.8-2.3c-0.5,0-0.7,0.2-0.9,0.2l-46.2,7.6c-0.2-1.3-0.7-2-1.8-1.8
	c-24,5.1-17.5,6-49.6,8.8c-1.4,0.2-3.4,0.9-6,2.5c-0.2-1.3-0.9-2-2.5-1.8l-19.7,1.6l-13.2,3.2c-0.2-1.3-0.9-2-2.5-1.8
	c-7.4,2-13.9,3.2-19.1,3.6h-0.4c-3.2,0.4,1.6-0.9-0.9-2l-4,2.3c-5.8,0.5-2.7-0.4-22.6-0.2c-34.8,4.3-31,4.9-34.8,5.1l-13-0.9
	c0.2,1.3-0.5,2.2-2,2.2c-14.8-2-22.4-4.3-22.6-7c2-14.1,5.4-21.3,10.3-21.7l2.5-0.2l-2.2,4.7l2.5-0.2c4.7-2.5,6.9-4.9,6.7-7
	l-0.4-4.9l-4.7,0.4l-0.4-4.5c-0.4-3.4,0.2-6.5,1.4-9l10.6-17.1l0.4,4.5l5.1-0.4l-0.4-4.5l-2.9-4.2c3.8-3.2,6.7-5.1,9-5.2l-0.2-2.3
	l-6.9,0.5l-0.5-6.9c13.7-28.5,20.2-45.1,19.9-49.8l4.9,2c3.1-0.2,4.5-2,4.3-5.2l-4.7,0.4l-0.2-2c-0.4-3.4,0.4-6.7,1.8-9.6
	c7.4-7.8,10.8-15.5,10.1-23.6c1.4-0.2,2.2,0.5,2.3,2.2c6.3-3.6,11.2-13.2,14.8-29.1c11.2-20.2,27.1-60.6,47.8-121.1
	c39.7-106.8,38.1-118.2,43.7-143.5l-4.7,0.4c0.4,3.2-0.4,6.3-1.8,9.2c-3.2-1.3-5.8-2-7.6-1.8l-0.2-2c-0.7-9.2,3.1-20.2,11.7-33.2
	l2.2-0.2l4,15.5l4.7-0.4c-0.2-1.1,1.1-7.2,3.6-18.6c-0.2-2.3-2-3.8-5.6-4l-4.5,2.9c-0.4-3.2-0.2-11.7,0.4-25.3l-2.3,0.2
	c-4-4-6-7.2-6.1-9.9l-25.8,2.5c-0.2-1.8-1.1-4.5-2.9-7.9c-0.2-2.3,5.6-4.7,17.5-7l5.2,2l4.9-2.9c0.2,1.6,1.1,2.3,2.9,2.2l4.9-2.9
	c0.2,1.6,1.1,2.3,2.9,2.2l2.3-0.2l-0.4-5.2c-3.6,0.4-13.2,0.4-28.3-0.2l-4.9,3.2l-0.2-2.9c-121.1,9.9-189.8,15.5-206.3,17.1
	c-2.2,0.2-10.6,0-25.6-0.4c0.2,2-1.6,3.1-5.2,3.4l-5.2-2.3L1904,812c-4.2,0.4-11.2,0.2-20.9-0.9c-2.7,2.2-6,3.4-9.9,3.8
	c-2.2,0.2,25.8-1.4,51.8-3.2c-2.7,2.2-6.9,3.4-12.6,4c-4,0.4-7.4-0.2-10.3-1.8c-4,1.8-16.8,4.7-38.3,9l-5.2-2l-84.5,13
	c-3.2-1.6-7-2.2-11.4-1.8c-4.5,0.4-12.1,2-22.6,4.9l-40.8,17l3.1,5.1c2-0.2,4.9-1.3,8.3-3.2l14.4,1.3l-1.8,13.5
	c-13.4,6-21.1,14.8-23.3,26c-20,8.8-30,15.2-30,18.9l0.2,2.3l3.1-0.2l5.4-2.9l6.3,7.6l0.9,10.5c0.4,3.2-33.4,74.2-100.9,212.8
	c-58.5,133.5-89.2,206.6-92,219.8c-20,5.6-31.6,13.7-35,24.5c0.4,3.4,6.3,5.8,17.9,6.7l0.5,5.2l-5.2,8.7l0.9,10.5
	c0.5,5.4,15.2,9.6,43.9,12.5c-0.2-1.8,0.7-2.9,2.7-3.1c0.5,6.5-1.3,19.1-5.4,37.9l3.1-0.2c11.9-16.2,17.5-27.4,17-33.6l2.5-0.2
	c2.9-0.2,6,3.1,9.6,10.1c-3.6,1.4-16.2,30.1-37.9,86.3l3.1,5.1l3.1-0.2c26.5-67.1,43.1-104.3,50-111.3c34.8-3.1,95.1-9.2,180.6-18.4
	l5.4-3.2c0.2,1.8,1.3,2.7,3.2,2.5l5.6-0.5l5.4-3.2c0.2,1.8,1.3,2.7,3.2,2.5l64.8-5.6c17.1-1.4,25.3-6.7,24.5-15.5
	c-0.2-2.3,9.9-5.1,30.3-7.9c2-0.2,4.9,0.4,8.8,1.6c-0.2-1.6,10.1-3.2,30.7-5.1c0.5-10.8,4-16.6,10.1-17.1l-0.5-5.2
	c-5.8,0.5-12.3,2-19.9,4.5c-13.5-0.7-22.2-1.8-25.8-3.1c-3.6,2-6.3,3.1-8.3,3.2l-45.1,1.4l-5.4,2.9c-0.2-1.6-1.3-2.3-3.2-2.2
	l-2.5,0.2l-5.8,2.9c-0.2-1.6-4.9-2.9-14.3-4.2l-5.8,3.4l-11.2,0.9l-0.2-2.9c58.1-6.3,86.8-14.3,86.1-23.6c3.8-0.4,5.8,1.4,6.1,5.2
	l17-4.3l-0.5-5.2l-139.1,3.8c0.2,1.8-0.7,2.9-2.7,3.1l-17-1.4c-4.3,0.4-7.9,1.6-10.8,3.8l-6.3-2.3c-17.5,1.4-30.5,3.6-39.2,6.3
	c-11.9-0.9-25.1-0.7-39.7,0.5l-31.2,2.7l-14.4-1.6c-0.7-9.2,17.1-54.5,54-135.7c10.6-27.4,20.4-44.6,29.8-51.1
	c2-0.2,4.9,0.5,8.8,2.2l22.2-7.6l11.4,1.8c19.1-1.6,41.3-7,66.8-16.4c6.3-0.5,11-0.2,14.4,1.3l17-4l50.5-4.3
	c21.5-1.8,44.8-6.5,70-14.3l-0.5-5.2c-9.4,0.9-14.3-0.7-14.6-4.5c-0.5-7-7.4-9.9-20.6-8.8l-0.5-5.2l13.9-4l36.5-3.1l-0.5-5.2
	c-1.4,0.2-8.8,0-22.6-0.5l-0.5-5.6l14.1-1.3c3.8-0.4,5.4-2.2,5.1-5.8c-18.9,0.5-28.5-0.4-28.7-2.9c-132.1,6.5-198.3,7.8-198.7,3.6
	c-2,0.2-4.7,1.4-8.3,3.6l-3.4-5.4c35-74.4,55.6-111.9,61.5-112.4c0.2,2.9-1.3,7.6-4.5,13.9l0.2,2.3l5.6-0.5
	c13.9-33.2,25.6-50.3,35.4-51.1c41.5-3.6-5.8-6.3,83-20.2c3.6,1.6,6.1,2.3,7.9,2.2c34.8-7,83.4-14.4,145.6-22l-0.4-5.2l-33.2,3.1
	l-0.4-5.2c4-0.4,7.2-1.6,9.9-3.8l0.2,2.9c1.8-0.2,4.3-1.4,7.6-3.6c5.8-0.5,10.1,0,13.2,1.6c11.5-3.1,20.9-4.9,27.8-5.6l20.8-2
	c5.1-3.2,7.4-6.1,7.2-8.8l-0.2-2.3c-5.2,0.5-11.2,0.2-18.2-1.1c-0.2-2.9,1.3-4.9,4.7-5.8l38.6-3.6l17.7-4.5c0.2,2,1.1,2.7,2.5,2.7
	c1.8-0.2,4.3-1.4,7.6-3.6c0.9,0.2,2,0.2,2.9,0.4c-2.3,4.9-5.1,11.9-7.8,21.1l-5.1,0.4c-0.4-3.4-1.3-6.5-2.9-9.2l-2.5,0.2
	c-46.9,130.7-67.9,191.5-111.2,291.8c-7.9,25.6-14.6,39.9-20.4,43c0.2,2.9,2,4.3,5.1,4c1.1,12.6-1.8,25.1-8.8,37.4
	c-20,57.7-33.4,89.3-40.2,95.1l4.5,27.3c0.2,2.9-1.3,4.5-4.3,4.9l-4.7,0.4c-0.7-7.6-3.4-11.2-8.3-10.6l-2.5,0.2
	c-6.1,9.6-10.8,20.6-13.9,33.4l4.7-0.4c6.3-4.2,9.2-9,8.7-14.6l9.4-0.9l5.4,2c-4.3,6.9-6.3,12.3-6,16.4l2.5,4.3l-6.1,14.4l0.2,2.3
	c5.4-0.5,11.4,1.3,17.7,5.1c4.3-0.4,9-2.3,14.3-5.8c5.4-0.5,25.6-0.7,60.5-0.7l17.5-6c21.3-0.2,24.7,0.4,43.1-1.3l7.6-0.7l4-2.7
	l0.2,2.3c19.3-1.6,20.6-0.4,35.7,1.4l0.2,2.3l-10.6,0.9l0.4,4.5c3.2-0.4,6.1-1.3,8.5-3.2c2.7-0.2,4.3,1.3,4.5,4.5
	c-4.3,0.4-9.2,1.4-14.6,3.2l-4.7-1.6c-7.4,2-5.8,2.5-10.8,2.9l-7.4-1.4c0.2,1.3-0.5,2.2-1.8,2.2c0.2,2.9,1.8,4.3,4.5,4.2l7.6-0.7
	l39.5-3.4l15-3.2c0.2,1.3,0.7,2,2,1.8l7.2-2.7l13.5-1.1c10.5-0.9,10.3-1.6,33-5.2c-0.2-1.4,0.4-2,1.4-2.2l0.2,2
	c37-6.3,39.3-6.7,45.3-8.7l0.5,1.1c9.2-2.2,4-1.6,6.5-3.4c0.2,1.6,0.7,2.3,1.6,2.3l6.5-0.5l-0.4-4.9l-13.2-0.2l-0.2-0.4
	c-0.5,0.2-0.9,0.2-1.4,0.4h-1.8v0.4c-8.8,1.8-9,0.5-14.8,1.1l-33,1.8l-0.2-2.3l18.4-2.5l6.7-0.5l3.8-2.7l0.2,2.3
	c26-2.2,35.2,4.3,155.4-21.3c6.5-0.5,6-6,10.1-17.1c-2.2,0.2-4.3-0.4-6.3-1.4c-9.9,3.8-15.2,2-34.3,5.1c-1.6,0.2-2.9-1.3-3.4-4.2
	l-0.2-2l18.4,0.5c3.4-0.4,10.1-0.9,20-6.5C2423.4,1328.3,2419.8,1329.2,2422,1329L2422,1329z M1533.4,1343.2l-8.5,0.7
	c-0.4-3.4,4.2-16.4,13.5-38.6l5.6-0.5C1544.2,1310,1540.8,1322.9,1533.4,1343.2L1533.4,1343.2z M1543.7,1302.1l-0.2-2.3
	c-0.2-2.9,1.6-4.9,5.6-5.8l0.2,2.3C1549.4,1299.8,1547.6,1301.7,1543.7,1302.1z M1656.4,1389.3l0.2,2.3l-14.1,1.3l-0.2-2.3
	L1656.4,1389.3z M1639.5,1387.8c0.2,2.9-4.2,6.1-13.5,9.4l-17.3-1.3l-5.6,0.5l-0.5-5.2L1639.5,1387.8L1639.5,1387.8z M1753.5,862.8
	l-8.5,0.7l-0.2-2.9c-0.2-2.9,1.4-4.9,5.1-5.8l3.1-0.2l5.8,2.3C1758.9,860.5,1757.3,862.5,1753.5,862.8L1753.5,862.8z M1882.6,837.6
	l2.7-0.2l0.4,5.2l-7.8,0.7C1877.7,840.5,1879.1,838.5,1882.6,837.6L1882.6,837.6z M1850.1,849l-12.8-1.4l-0.2-2.3
	c16.8-1.4,22.4-3.2,32.7-6.1c0.2,2,2,2.7,5.2,2.3l0.4,5.2l-5.1,0.5c-4,0.4-7.4-0.2-10.3-1.8C1856.9,847.3,1853.7,848.6,1850.1,849z
	 M1866.1,895.7l-0.2-2.3l20.8-2l0.2,2.3L1866.1,895.7z M1888.3,877.6l-0.2-2.9l10.1-0.9l0.2,2.9L1888.3,877.6z M1890.7,842.3
	l-2.7,0.2l2.3-5.6l23.1-2.2l0.2,2.9C1907.7,838.1,1899.9,839.7,1890.7,842.3L1890.7,842.3z M1902.4,892.1l-0.4-5.2l10.1-0.9
	c3.4-0.4,5.2,1.3,5.4,4.9L1902.4,892.1z M1963.6,808.7l-13,3.6l-2.3,0.2c-6.1,0.5-14.1,0.4-23.5-0.5
	C1941.6,810.9,1957.6,809.6,1963.6,808.7z M1949.7,866.5l0.2,2.3l-17.9,1.6l-0.2-2.3L1949.7,866.5z M1978.9,880.4
	c-0.2-2.2-3.6-3.6-10.6-4.3l-17.9,5.1l-13.7,0.5c-3.1-2.2-4.7-3.6-4.9-4.7l15.9,0.9l35.7-5.8l18.2,0.7l0.2,2.9
	C1992.8,876.6,1985.3,878.2,1978.9,880.4L1978.9,880.4z M2162.8,832.9c2.2,0.2,3.6,0.2,4.2,0.2c6.3-6.1,13.4-11,21.5-14.4
	c-6.5,28.5-16.6,49.6-30.5,63.3l-10.1-6.1C2156.3,854.4,2161.4,840.1,2162.8,832.9L2162.8,832.9z M2131.8,886.1l2.5-0.2
	c-3.4,6.5-6.5,9.9-9,10.1l-0.5-6.9C2126.4,889.2,2128.7,888.1,2131.8,886.1z M2111.8,934c4.9-19.5,9.6-30.5,13.9-33.4l0.2,2.3
	c-2.5,18-6.5,27.6-11.7,28.3l0.9,11.4c-4.3,6.1-6.3,10.8-6.1,14.4l-2.5,0.2l-1.4-15.7C2107.8,941.2,2110.1,938.6,2111.8,934
	L2111.8,934z M2104,959.9c0.2,2.7-1.6,9-5.2,18.8l-2.5,0.2l-0.5-6.9C2099.1,964.1,2102,960.1,2104,959.9L2104,959.9z M1958.4,1382.6
	l-0.2-2l4.7-0.4l0.5,6.9C1960.9,1387.3,1959.1,1385.8,1958.4,1382.6L1958.4,1382.6z M2166.4,1388c-0.2-1.6-0.9-2.3-2.5-2.2
	l-11.7,1.1l-0.2-2.3h1.1l27.8-2.3l0.2,2.3C2172.9,1384.9,2168.1,1386.2,2166.4,1388z M2152.5,1382.2c1.1,0.5,0.5,1.1,0,1.4
	C2152,1383.5,2151.3,1382.9,2152.5,1382.2z M2154,1349.7l-15.5,1.3l-0.2-2.3l14.1-1.3l12.3-3.1c0.2,1.4,0.9,2,2.5,1.8
	c14.6-2.5,13.2-3.2,20.2-3.8c2.3-0.2,3.8,1.3,4,4.2L2154,1349.7L2154,1349.7z M2208.3,1345.1c-8.7-0.9-9.2-1.6-15.3-1.1l-0.2-2
	l13.9-1.3l0.2,2C2205.4,1342.9,2210.7,1343.2,2208.3,1345.1L2208.3,1345.1z M2209.4,1342.5l-0.2-2l7.6-0.7l0.2,2L2209.4,1342.5z
	 M2226.2,1341.1l-0.2-2c1.3-0.2,3.1-1.1,5.4-2.9c3.8-0.4,5.8,2.2,6.1,5.1L2226.2,1341.1L2226.2,1341.1z M2247.7,1338.4l-0.2-2.3
	l9.2-0.7l0.2,2.3L2247.7,1338.4z M2260.5,1337.3c-0.2-2.7,0.9-4.3,3.2-4.7l3.1,4c-0.2-1.3,0.4-2,1.4-2.2l2.3,4.3L2260.5,1337.3
	L2260.5,1337.3z M2124.2,1396.1l-0.4-4.5l-1.4,0.2l0.4,4.5L2124.2,1396.1z M2441.3,1314c1.4-0.9,2.2-1.8-1.3-2.3
	c-1.6,1.8,1.8,2.3-1.8,2.5l0.2,1.6c0.4-0.4,1.3-0.9,2-1.4l-2,1.6v0.2l-3.8,4.9l7.6-2.7h0.9l-0.4-4.5L2441.3,1314L2441.3,1314z
	 M2454.5,1324.3l-1.4,0.2l0.4,4.5l10.6-0.9C2463.9,1325.2,2456.8,1324.3,2454.5,1324.3L2454.5,1324.3z M2438,1316.4l0.2-0.2v-0.2
	C2438.2,1316,2438,1316.2,2438,1316.4z"/>
<path class="st1" d="M1745.2,982.3l0.2,2.9l6-0.5c-0.2-1.8,0.5-4.7,1.8-8.3l-0.5-5.2C1750.1,971.3,1747.6,975.1,1745.2,982.3z
	 M1688.2,845.2l-0.5-5.2l-8.5,0.7l0.5,5.2L1688.2,845.2z M1522.7,1155c-0.4-4.9-15.5-23.8-45.5-57.2c-0.5-6.1,9.7-15.3,30.9-27.4
	l60.3-52.5c13.5-17.1,21.5-44.9,23.8-83.6l-0.7-8.8c-2.3-26.7-21.7-48.2-58.3-64.6c-21.7-14.6-60.6-22.7-116.9-24.2
	c-46.6,4-107.4,20.6-182.3,50c-20.6,14.8-44,29.6-70.4,44.4l0.4,4.5c1.6-0.2,4.2-1.1,7-3.1c3.1-0.4,4.9,1.1,5.1,4l4.5-2.3l2.2-0.2
	l0.2,2c0.2,2.3-16.1,15.2-48.9,38.1l2.5,4.7l-2.2,0.2l-5.4-2c0.2,1.6-2.2,2.7-6.7,3.1l0.2,2l5.2,6.5c-1.6,0.2-4.2-0.5-7.6-1.8
	c-7.6,0.7-15,4.7-22.4,12.3l3.1-13.4c11-47.5,18.6-89.5,22.6-126l-0.5-2.3c-7.6-4.9-15-11.7-21.8-20.4c0.2-5.6,0.2-8.8,0-9.6l-0.5-2
	l-2.2,0.5c-23.8,35.7-69.7,96.7-137.7,183c-51.8,61.4-78.5,95.5-80.1,102.3c-21.1,21.8-31.2,35-30.1,39.5c-5.6,3.6-7.9,7.2-7,11.2
	c-1.6,0.4-2.7-0.2-3.1-1.8c-9,14.6-22.4,24-40.2,28.2l-18.8,4.3c-2.5,0.5-3.8,2.3-3.6,5.4l0.5,2.3l7-1.6l0.5,2l-15.9,6.1l-28.2,6.5
	l-14.8,0.9c-2.2,2.2,11.7-0.2,6.3,1.1l-18.4,4.3c-11.2,2.5-17.3,1.6-18.4-2.9l-2.2,0.5c0.4,2,0.5,3.4,0.2,4.7l-1.1-4.5l-14.8,3.4
	c-1.1-6.9-21.1-31.8-59.9-74.7c-0.7-8.3,13-20.4,41-36.1l79-69.5c17.7-22.7,28.2-59.2,31.6-109.4l-1.1-11.7
	c-3.1-35.4-28.7-63.9-76.9-85.9c-28.5-19.3-79.8-29.6-153.8-31.2c-61.4,5.2-141.5,27.1-240,65.1c-27.1,19.7-57.9,39.2-92.6,58.5
	l0.5,6.1c2.3-0.2,5.4-1.4,9.2-3.6c4-0.4,6.1,1.4,6.5,5.1l6.1-3.4l3.1-0.2l0.2,2.9c0.2,2.9-21.3,19.7-64.8,50.3l3.4,5.4l-3.1,0.2
	l-6.7-2.3c0.2,1.8-2.9,3.1-9.2,3.6l0.4,3.2l7.2,7.9c-2.3,0.2-5.6-0.5-9.7-2c-14.1,1.3-27.8,11.4-41.3,30.5l3.4,5.4
	c11.7-10.8,18.6-16.2,20.6-16.4l0.7,8.8c-2,0.2-5.1,1.4-9.2,3.6l7.4,11.2c14.3-15.3,30-28.5,47.1-39.5c8.5,2.2,13,4.9,13.2,7.8
	l6.5-0.5c46.6-34.5,92.6-59.4,138.2-74.7l0.5,6.1c-8.5,12.6-14.3,19.1-17.3,19.5c0.4,4.3,1.8,8.1,4.5,11.4
	c0.7,7.8-20,60.1-62.1,156.8c-95.3,225-175.4,391.4-240.6,498.9c0.2,2.2,1.4,5.1,3.8,8.7c16.1-3.8,26.2-7.8,30.5-11.5l3.4-0.4
	l0.5,6.1l6-0.5l6.1-3.4c0.2,1.8,2.2,2.7,6.3,2.3l0.5,6.1c0.5,6-2.9,15-10.1,27.4c-6.5,7.4-13.5,22.9-20.9,46.6l0.2,2.9l6-0.5
	c26-29.1,45.7-57.6,59.2-85.4c75.8-22.2,133.5-44,173.6-65.5c40.2-3.4,70.9-14.1,91.9-31.6l-0.4-3.2l-15.2,4.5l-3.4,0.4l-0.4-3.2
	c29.6-4.5,50-11,61.4-20c57.6-44.4,101.1-75.8,130.5-94.4c60.5-44.4,99.8-87.7,117.7-129.8c3.2-0.7,6.5-1.4,10.1-2.3
	c8.5-0.4,13.2-0.5,14.4-0.9c-0.4-1.6,0.4-2.5,2-2.9c13.5-1.4,7,0.9,15.7-1.1l22.7-5.2l3.8-0.9l-1.8,1.1c2.5,0.4,5.2,0.2,8.3-0.5
	l1.6,6.7L641.1,1442l-22.9,28.7L607,1508l2.2-0.5l11.2-4.7l-3.6,14.6l1.1,4.3l3.1,3.8c-1.4,0.4-2,1.3-1.6,2.9l0.5,2.3l4.7-1.1
	c6.9-6,9.7-11.4,8.7-16.2c7.4,1.3,12.3,1.8,14.8,1.1l0.5,2.3c-4.5,1.1-6.9,4.7-7.2,10.8l0.5,2.3l2.5-0.5
	c37.5-41,129.6-181.2,203.4-276.3c-2.3-10.3,36.1-24.5,115.5-43l2.5-0.5c2.9,12.5-3.2,42.6-18.4,90.4c-9.7,28.9-14.4,44.8-13.7,47.3
	c-12.6,38.4-18.6,59.2-17.9,62.4l-28.2,92.2c-18.2,47.3-32.1,96.9-41.9,149.2c1.6-0.4,4.2-0.2,7.8,0.7l4-3.4
	c0.4,1.6,1.4,2.2,3.1,1.8l-1.6-6.7l12.3-0.4c3.6-0.9,6.7-5.4,9.2-13.7c-0.5-12.5,2-19.1,7.6-20.6c7.6-29.6,12.3-44.4,13.9-44.9
	c7-29.4,12.3-46.2,15.7-50.3c10.6-38.3,18.4-57.9,23.5-59.2l1.1,4.7l-7.8,20c-13.5,60.1-27.3,107.6-41.1,142.4l4,17.3l2.5-0.5
	c33.6-72.2,81.9-215.1,144.9-428.8c1.8-18.8,10.8-33.4,26.9-43.7l-3.6-3.8l-0.5-2c7.2-1.6,12.3-4.5,15.2-8.5
	c-0.4-1.6-6.7-4-18.9-7.2l31.4-134.6c6.9-6.1,10.8-9.4,12.1-9.4l0.5,6.9c-1.6,0.2-4.2,1.1-7,3.1l6,8.5
	c10.8-11.7,22.6-21.8,35.4-30.3c6.5,1.8,9.7,4,10.1,6.1l4.7-0.4c35.7-26.2,70.7-44.9,105.2-56.3l0.4,4.5c-6.3,9.6-10.6,14.4-13,14.6
	c0.4,3.2,1.3,6.1,2.9,8.7c0.5,6-15,45.7-46.7,119.3c-72.5,170.5-133.4,296.7-182.8,378.6c0.2,1.6,1.3,3.8,3.2,6.7
	c12.1-2.9,19.9-6,22.9-8.8l2.2-0.2l0.4,4.5l5.1-0.4l4.5-2.3c0.2,1.3,1.8,1.8,4.9,1.6l0.4,4.9c0.4,4.3-2.2,11.2-7.8,20.6
	c-5.2,5.6-10.6,17.3-16.4,35.2l0.2,2.3l4.7-0.4c19.7-22,34.6-43.7,44.9-65c57.6-17,101.4-33.4,131.7-49.6c30.9-2.7,54.1-10.6,70-24
	l-0.2-2.3l-11.7,3.4l-2.5,0.2l-0.2-2.3c22.4-3.2,38.1-8.3,46.6-15c43.7-33.6,76.7-57.6,99.1-71.6
	C1494.2,1250.5,1526.7,1201.8,1522.7,1155z M1510.8,1158.1l1.6,18.2c-2.2,4.5-4.5,6.9-6.7,7l-2.7-31
	C1508.1,1154.1,1510.6,1155.9,1510.8,1158.1z M144.3,1011.2l-3.1,0.2l-0.5-5.6l12.5-1.1l0.2,2.9
	C151.4,1007.8,148.3,1008.8,144.3,1011.2z M83.5,1619.5c-7.2-3.2-13.7-4.5-19.3-4l-0.7-8.8c-0.4-3.4,1.6-5.8,6-6.7
	c4-0.4,6.3,2.5,6.7,8.3c10.5-12.8,16.2-19.3,17.3-19.5l6.7,2.7C97.9,1609.6,92.3,1618.8,83.5,1619.5L83.5,1619.5z M733.4,939.7
	c-3.1,0.4-9.2-9.2-18-28.2l-0.5-5.6c5.8-0.5,11.7,8.8,18,28.2L733.4,939.7z M724.7,872.4l-2.5,6L634,841.6
	C692.8,843.5,723.1,853.8,724.7,872.4L724.7,872.4z M352,1192.4l-12.5,1.1l-0.5-5.6l12.5-1.1L352,1192.4z M341.9,1000.2l3.1-0.2
	l0.7,8.8c-2.9,0.2-6.7,4.5-11.4,12.8l-0.5-6.1C339.4,1008.8,342.3,1003.8,341.9,1000.2L341.9,1000.2z M315.8,1061.9l1.1,11.7
	l-3.1,0.2l-1.1-11.7L315.8,1061.9z M302,1083.9l6-0.5c-0.5,9.7-3.2,15-8.1,15.3l-3.1,0.2C300.6,1092.4,302.4,1087.3,302,1083.9
	L302,1083.9z M291.8,1114.6l3.4-0.4l0.2,2.9l-5.6,9.4l-6,0.5l-0.2-2.9C289.6,1123.6,292.3,1120.6,291.8,1114.6z M281.7,1142.2
	l-1.8,14.8l-3.1,0.2l-1.3-14.6L281.7,1142.2L281.7,1142.2z M180.4,1430.1c-4,20.2-8.3,30.5-12.8,30.9l-0.2-2.9
	C166.3,1448.1,170.7,1438.7,180.4,1430.1L180.4,1430.1z M161.8,1470.3l0.2,2.9c0.4,4-1.4,6.3-5.4,6.5l-0.2-2.9
	C156.1,1473.4,157.9,1471.2,161.8,1470.3z M156.4,1553.9l9.4-0.9l0.4,3.2c-2.3,0.2-5.4,1.4-9.2,3.6l-6,0.5
	C150.6,1557.3,152.6,1554.9,156.4,1553.9L156.4,1553.9z M423.5,1471.4c-52.7,26-83.7,43.7-92.9,52.9c-57,19.9-85.4,32.1-84.8,37
	c-50.7,20-84.1,34.8-100.2,44c-3.8,0.4-9.2-1.1-16.4-4.3c-0.9-10.3,3.8-18.6,13.7-25.3c8.8-0.7,17.3,0.5,25.4,4
	c9.4-4.9,25.8-10.3,49.1-16.1l-0.5-6.1l-18.8,1.6c2.3-3.2,20.4-11.7,54.3-25.4l9.4-0.9l0.2,2.9c-16.1,1.4-24.9,6.1-26.9,14.6
	c0.4,3.8,2.5,5.4,6.5,5.1c12.1-7.6,18-12.1,17.9-13.4c22.9-4.3,86.3-37.5,190-99.4l0.5,5.6C450.2,1450.8,441.4,1458.4,423.5,1471.4
	L423.5,1471.4z M264.3,1523.7c15.2-1.3,28.2-7.4,39-18c4.3-0.4,6.7,1.3,6.9,5.1c-7.4,0.7-21.7,6.9-42.4,18.8l-3.1,0.2L264.3,1523.7
	L264.3,1523.7z M521.1,1326.5l-79.6,63.2c-59.2,38.8-91,58.3-95.6,58.7c-94.2,51.8-152.9,78.7-175.6,80.7l-3.4,0.4
	c2.9-10.6,44.8-96.4,126-257.7c35.7-3.1,92-19.7,168.7-50l18.8-1.6c38.8-3.4,67.9,4.2,87,22.2l1.1,11.7
	C554.2,1295.2,538.3,1319.4,521.1,1326.5L521.1,1326.5z M365.6,1238.9l12.8-1.1l0.2,2.9l-12.8,1.1L365.6,1238.9z M545.5,1208.4
	l9.4-0.9c8.7,4.2,13.2,7.8,13.5,11l0.2,2.9C560.3,1222.2,552.5,1217.8,545.5,1208.4L545.5,1208.4z M570.9,1063.5
	c-8.3,9.9-31,26.9-68.2,50.7c-12.3,1.1-57.9,18.8-137,53.4c-4-1.8-8.1-2.5-12.6-2.2l-0.5-5.6c-0.9-11.4,4.2-25.6,15.3-43
	c6.1-32.5,12.8-51.1,20.2-55.6l65.9-148c-0.7-9.2,13.4-16.2,42.2-21.1l9.4-0.9l0.7,8.5c28.3-4.3,46-6.9,52.9-7.4
	c52.3-4.5,79.6,6.1,81.8,31.6l6-0.5l-1.3-15l6.5-0.5c15.3,8.5,23.6,18.8,24.7,30.9c0.7,8.3-3.8,18.6-13.4,30.9
	c-4,0.4-6.3-2.5-6.7-8.3l-6.5,0.5l-1.4,18c-26.5,39.7-45.8,60.1-57.7,61.2C580.3,1055.9,573.7,1063.3,570.9,1063.5z M611.4,1167.3
	c-5.4-3.6-9.7-5.2-13-5.1l-0.7-8.8l6-0.5l13.2,7.8C617.3,1164.8,615.5,1166.9,611.4,1167.3L611.4,1167.3z M653.2,1216.9
	c5.8,2.3,9.2,4.9,9.9,7.2l-2.9,0.7l0.2,0.2c-0.5,0-1.3,0.2-1.8,0.4l-4.3,3.4L653.2,1216.9z M657.2,1241.8l-0.5-2.3l7.6-1.8l0.5,2.3
	L657.2,1241.8z M675.4,1262.2c7.8-1.3,11.5-1.8,26-5.1l0.5,2.3l-27.4,6.3C674.9,1264.6,675.3,1263.3,675.4,1262.2L675.4,1262.2z
	 M702.1,1273.6c-11.5,1.1-9-0.4-27.4,3.8l-0.5-2.3l23.1-7.4l11-2.5l1.1,4.3C704.3,1270.5,707.9,1270.5,702.1,1273.6L702.1,1273.6z
	 M726.5,1267.8c-2.7,0.7-4.9-0.5-6.1-3.6l7-1.6c3.1-0.7,5.1,0.5,5.8,3.6L726.5,1267.8z M792.6,1196.7l-0.5-2.3l11.4-2.7l1.1,4.3
	L792.6,1196.7z M863.1,1629.5c0.7-3.2,0.9-5.6,0.5-7.2l2.5-0.5c3.1-0.7,4.9,0.4,5.6,3.2l0.5,2.3L863.1,1629.5z M912.6,1215.3
	l-5.1-0.9c-8.1,3.2-15,5.6-20.6,6.9l-4.7,1.1c-2.7,0.7-4.9-0.4-6-3.2l33-7.6l10.8-5.1l3.6,4.2
	C918.5,1211.7,914.7,1213.3,912.6,1215.3z M938,1207.2l-0.5-2.3c1.6-0.4,3.8-1.6,6.1-4l23.5-5.4l0.5,2.3
	C955.2,1200.9,945.2,1203.9,938,1207.2z M941.6,1159.7c-1.6,0.4-3.8,1.8-6.5,4c-0.4-1.6-3.6-1.6-9.7-0.2
	c-1.1-4.5,16.2-10.8,52.2-19.1l5.1-1.1l1.1,4.3C958.4,1155,944.3,1159.2,941.6,1159.7z M1004.8,1091.5
	c-2.5,28.7-12.6,44.9-30.5,49.1l-0.5-2.3l-15.9,6.1l-7,1.6c-3.6,0.9-6.9,0.7-9.7-0.2l-1.4-6.3c-0.5-2.3,22.4-34.1,68.9-95.1l5.4,0.9
	C1016,1053.6,1012.9,1068.9,1004.8,1091.5z M1116.5,995.9l-2.2,0.2l-0.4-4.5l9.4-0.9l0.2,2.3
	C1121.9,993.3,1119.6,994.2,1116.5,995.9L1116.5,995.9z M1070.5,1458c-5.4-2.5-10.3-3.6-14.4-3.2l-0.5-6.9c-0.2-2.3,1.3-4,4.3-4.9
	c3.1-0.4,4.9,1.8,5.2,6.5c7.8-9.9,12.1-15,13-15l4.9,2C1081.1,1450.3,1077,1457.5,1070.5,1458L1070.5,1458z M1563.9,941.9
	c-2.3,0.2-6.9-7-13.9-21.7l-0.4-4.5c4.5-0.4,9.2,6.7,13.9,21.1L1563.9,941.9z M1557.4,890.3l-2.2,4.7l-66.8-28
	C1533,868.4,1556.1,876.2,1557.4,890.3z M1274.2,1133.4l-9.4,0.9l-0.4-4.5l9.4-0.9L1274.2,1133.4z M1266.5,987.4l2.5-0.2l0.5,6.9
	c-2.3,0.2-5.2,3.4-8.7,9.7l-0.4-4.5C1264.7,994,1266.6,990.1,1266.5,987.4L1266.5,987.4z M1246.8,1034.3l0.7,8.8l-2.5,0.2l-0.7-8.8
	L1246.8,1034.3z M1236.1,1051.1l4.7-0.4c-0.5,7.6-2.5,11.5-6,11.9l-2.5,0.2C1235.1,1057.7,1236.3,1053.8,1236.1,1051.1
	L1236.1,1051.1z M1228.6,1074.2l2.2-0.2l0.2,2.3l-4.2,7.2l-4.7,0.4l-0.2-2.3C1226.8,1081.2,1228.9,1078.7,1228.6,1074.2
	L1228.6,1074.2z M1221,1095.1l-1.6,11.5l-2.2,0.2l-0.9-11.4L1221,1095.1L1221,1095.1z M1143.9,1314c-3.1,15.2-6.3,22.9-9.7,23.3
	l-0.2-2C1133.5,1327.7,1136.7,1320.5,1143.9,1314z M1129.7,1344.5l0.2,2c0.4,3.2-1.1,5.1-4.3,5.2l-0.2-2.3
	C1125.2,1347,1126.6,1345.4,1129.7,1344.5z M1125.7,1408l7.2-0.5l0.2,2.3c-1.6,0.2-4.2,1.1-7,2.7l-4.7,0.4
	C1121.2,1410.4,1122.6,1408.8,1125.7,1408z M1328.4,1345.4c-39.7,19.7-63.3,33-70.7,39.9c-43.3,15.2-64.8,24.5-64.4,28.3
	c-38.4,15.3-63.7,26.3-75.6,33.4c-2.9,0.2-7-0.9-12.5-3.4c-0.7-7.8,2.9-14.1,10.5-18.8c6.9-0.5,13.4,0.4,19.3,2.9
	c7.2-3.6,19.7-7.6,37.4-12.1l-0.4-4.5l-14.6,1.3c1.8-2.5,15.7-9,41.5-19.5l7.2-0.5l0.2,2c-12.3,1.1-19.1,4.7-20.6,11.2
	c0.2,2.9,2,4.3,5.1,4c9-6,13.4-9.4,13.4-10.5c17.3-3.1,65.3-28.3,144.2-75.6l0.4,4.5C1348.6,1329.7,1341.9,1335.5,1328.4,1345.4
	L1328.4,1345.4z M1207.4,1385.1c11.7-1.1,21.7-5.6,30-13.5c3.1-0.2,4.9,1.1,5.1,4c-5.4,0.5-16.1,5.1-32.1,13.7l-2.5,0.2
	L1207.4,1385.1L1207.4,1385.1z M1402.7,1235.1l-60.1,48.4c-44.9,29.4-69.3,44.2-73.1,44.6c-71.5,39.3-115.9,59.7-133.4,61.2
	l-2.5,0.2c2.2-8.1,34.1-73.3,95.8-195.6c26.9-2.3,69.5-15.2,128-38.3l14.6-1.3c29.4-2.5,51.4,3.2,65.9,17.1l0.7,8.8
	C1427.6,1211.3,1415.7,1229.6,1402.7,1235.1L1402.7,1235.1z M1284.7,1168.7l9.4-0.9l0.2,2.3l-9.4,0.9L1284.7,1168.7z M1421.3,1145.5
	l7.2-0.5c6.7,3.2,10.1,6.1,10.3,8.5l0.2,2C1432.7,1155.9,1426.7,1152.7,1421.3,1145.5L1421.3,1145.5z M1440.2,1035.6
	c-6.3,7.6-23.5,20.6-51.4,38.6c-9.4,0.9-44,14.3-103.9,40.2c-2.9-1.1-6.1-1.4-9.6-1.3l-0.4-4.5c-0.7-8.7,3.1-19.5,11.4-32.7
	c4.7-24.9,9.9-38.8,15.3-42l50.3-112.6c-0.5-6.7,10.1-12.1,31.8-16.2l7.2-0.5l0.5,6.9c21.3-3.4,34.6-5.4,40.1-6
	c39.7-3.4,60.5,4.5,62.1,24l4.7-0.4l-0.9-10.8l4.7-0.4c11.5,6.3,17.7,13.9,18.4,22.9c0.5,6.5-2.7,14.4-9.6,23.6
	c-3.1,0.4-4.9-1.8-5.2-6.5l-4.7,0.4l-1.4,13.5c-20,30.5-34.6,46.2-43.9,46.9C1447.6,1029.8,1442.6,1035.4,1440.2,1035.6
	L1440.2,1035.6z M1461.4,1110.6l-0.5-6.9l4.7-0.4l10.1,6.1c0.2,2.9-1.3,4.5-4.3,4.9C1467,1111.7,1463.7,1110.4,1461.4,1110.6
	L1461.4,1110.6z M621.3,1549l-4.7,1.1l-4,3.4c0.7,2.9,2.5,4,5.6,3.2c3.1-0.7,4.3-2.5,3.6-5.4L621.3,1549z M603.4,1513.4l0.5,2.3
	c3.1-0.7,4.3-2.5,3.6-5.4l-0.5-2.3C604.1,1508.7,602.9,1510.5,603.4,1513.4z M731.2,1273.4l3.4-2.2c-0.7,0-1.3-0.2-1.8-0.4
	C731.6,1271.2,731,1272.1,731.2,1273.4L731.2,1273.4z M730.5,1211.1l5.4-1.3l-1.1-4.7l-5.4,1.3L730.5,1211.1z M2005.8,1393.4
	l-12.3-1.4l-2.2,4.7l0.2,2.3l73.1-6.1l-0.4-4.5L2005.8,1393.4z M2072.6,1387.8l0.4,4.5h0.7l-0.4-4.5H2072.6z M2379.2,1347.8l0.4,4.5
	l7.9,1.4l-0.4-4.5L2379.2,1347.8z M2368,1348.7c-54.9,12.3-61.7,10.1-73.3,11l0.4,4.5l5.1-0.4l2.7-0.2l-0.7-0.5l6-2.3
	c54.3-6,60.6-3.8,60.1-9.9L2368,1348.7L2368,1348.7z M2038.7,1268.9l-4.9-1.6c-4,10.6-6,17-5.8,18.8l0.2,2
	C2032,1287.8,2035.4,1281.3,2038.7,1268.9L2038.7,1268.9z M1972.6,1233.3l-0.2-2.3l-2.5,0.2l-4.5,2.9l2.5,4.3
	C1971.4,1238,1973,1236.4,1972.6,1233.3L1972.6,1233.3z M2116.1,1381.7l-0.4-4.5l-1.4,0.2l0.4,4.5L2116.1,1381.7z M2413.9,1314.6
	l3.4-0.4c2-0.2,2.9-1.8,2.7-4.7l-2-4.3c-12.5,1.1-18.2,1.6-28.3,7.2l-0.2-2.3l-15,1.4c-0.4-4.5-1.6-6.9-3.6-6.7l-7.8,0.7
	c-9,0.7-13.4,0.4-17.9,3.8c-0.2-1.6-0.7-2.3-1.6-2.3l-8.7,0.7l-5.1,2.9c-0.2-1.6-0.7-2.3-1.6-2.3l-3.1,2.7l-0.2-2.3l-12.1-0.9
	l-2.9,0.2l0.4,4.5l6.1,1.6l5.8-0.4c2,1.3,4.2,1.6,6.7,1.4l5.1-2.5l0.2,2c-28.3,7-28.2,5.8-47.6,9c-2.2-1.4-3.8-2.2-4.9-2l-0.4,0.4
	c-2.2-0.2-3.4-1.6-3.6-4l10.1-1.3c0.7,0,1.3,0.7,6.9,1.8c8.1-4,8.5-5.6,12.8-6l-0.4-4.5c-27.8,5.4-16.6,1.8-51.4,4.9l-1.6,0.2
	l-0.4-4.5c44.8-5.4,29.8-2.3,45.1-6.7c0.2,1.6,0.7,2.3,1.6,2.3c1.8-1.8,3.8-2.7,6.1-3.1l3.1-0.2c15.7-1.3,20.9,1.8,52-6.9l0.2,2
	l5.1-2.5l4.7-0.4c-0.4-4.5,6.5-5.2,8.8-5.4l-0.4-4.9c-54.5,11-68.8,7.9-83.9,12.3l-0.2-2c-14.3,2.5-14.8,1.4-18.4,1.6
	c-1.1,0.2-2.7,1.1-4.5,2.9c-0.2-1.6-0.7-2.3-1.8-2.3c-0.5,0-0.7,0.2-0.9,0.2l-46.2,7.6c-0.2-1.3-0.7-2-1.8-1.8
	c-24,5.1-17.5,6-49.6,8.8c-1.4,0.2-3.4,0.9-6,2.5c-0.2-1.3-0.9-2-2.5-1.8l-19.7,1.6l-13.2,3.2c-0.2-1.3-0.9-2-2.5-1.8
	c-7.4,2-13.9,3.2-19.1,3.6h-0.4c-3.2,0.4,1.6-0.9-0.9-2l-4,2.3c-5.8,0.5-2.7-0.4-22.6-0.2c-34.8,4.3-31,4.9-34.8,5.1l-13-0.9
	c0.2,1.3-0.5,2.2-2,2.2c-14.8-2-22.4-4.3-22.6-7c2-14.1,5.4-21.3,10.3-21.7l2.5-0.2l-2.2,4.7l2.5-0.2c4.7-2.5,6.9-4.9,6.7-7
	l-0.4-4.9l-4.7,0.4l-0.4-4.5c-0.4-3.4,0.2-6.5,1.4-9l10.6-17.1l0.4,4.5l5.1-0.4l-0.4-4.5l-2.9-4.2c3.8-3.2,6.7-5.1,9-5.2l-0.2-2.3
	l-6.9,0.5l-0.5-6.9c13.7-28.5,20.2-45.1,19.9-49.8l4.9,2c3.1-0.2,4.5-2,4.3-5.2l-4.7,0.4l-0.2-2c-0.4-3.4,0.4-6.7,1.8-9.6
	c7.4-7.8,10.8-15.5,10.1-23.6c1.4-0.2,2.2,0.5,2.3,2.2c6.3-3.6,11.2-13.2,14.8-29.1c11.2-20.2,27.1-60.6,47.8-121.1
	c39.7-106.8,38.1-118.2,43.7-143.5l-4.7,0.4c0.4,3.2-0.4,6.3-1.8,9.2c-3.2-1.3-5.8-2-7.6-1.8l-0.2-2c-0.7-9.2,3.1-20.2,11.7-33.2
	l2.2-0.2l4,15.5l4.7-0.4c-0.2-1.1,1.1-7.2,3.6-18.6c-0.2-2.3-2-3.8-5.6-4l-4.5,2.9c-0.4-3.2-0.2-11.7,0.4-25.3l-2.3,0.2
	c-4-4-6-7.2-6.1-9.9l-25.8,2.5c-0.2-1.8-1.1-4.5-2.9-7.9c-0.2-2.3,5.6-4.7,17.5-7l5.2,2l4.9-2.9c0.2,1.6,1.1,2.3,2.9,2.2l4.9-2.9
	c0.2,1.6,1.1,2.3,2.9,2.2l2.3-0.2l-0.4-5.2c-3.6,0.4-13.2,0.4-28.3-0.2l-4.9,3.2l-0.2-2.9c-121.1,9.9-189.8,15.5-206.3,17.1
	c-2.2,0.2-10.6,0-25.6-0.4c0.2,2-1.6,3.1-5.2,3.4l-5.2-2.3l-17.7,4.5c-4.2,0.4-11.2,0.2-20.9-0.9c-2.7,2.2-6,3.4-9.9,3.8
	c-2.2,0.2,25.8-1.4,51.8-3.2c-2.7,2.2-6.9,3.4-12.6,4c-4,0.4-7.4-0.2-10.3-1.8c-4,1.8-16.8,4.7-38.3,9l-5.2-2l-84.5,13
	c-3.2-1.6-7-2.2-11.4-1.8c-4.5,0.4-12.1,2-22.6,4.9l-40.8,17l3.1,5.1c2-0.2,4.9-1.3,8.3-3.2l14.4,1.3l-1.8,13.5
	c-13.4,6-21.1,14.8-23.3,26c-20,8.8-30,15.2-30,18.9l0.2,2.3l3.1-0.2l5.4-2.9l6.3,7.6l0.9,10.5c0.4,3.2-33.4,74.2-100.9,212.8
	c-58.5,133.5-89.2,206.6-92,219.8c-20,5.6-31.6,13.7-35,24.5c0.4,3.4,6.3,5.8,17.9,6.7l0.5,5.2l-5.2,8.7l0.9,10.5
	c0.5,5.4,15.2,9.6,43.9,12.5c-0.2-1.8,0.7-2.9,2.7-3.1c0.5,6.5-1.3,19.1-5.4,37.9l3.1-0.2c11.9-16.2,17.5-27.4,17-33.6l2.5-0.2
	c2.9-0.2,6,3.1,9.6,10.1c-3.6,1.4-16.2,30.1-37.9,86.3l3.1,5.1l3.1-0.2c26.5-67.1,43.1-104.3,50-111.3c34.8-3.1,95.1-9.2,180.6-18.4
	l5.4-3.2c0.2,1.8,1.3,2.7,3.2,2.5l5.6-0.5l5.4-3.2c0.2,1.8,1.3,2.7,3.2,2.5l64.8-5.6c17.1-1.4,25.3-6.7,24.5-15.5
	c-0.2-2.3,9.9-5.1,30.3-7.9c2-0.2,4.9,0.4,8.8,1.6c-0.2-1.6,10.1-3.2,30.7-5.1c0.5-10.8,4-16.6,10.1-17.1l-0.5-5.2
	c-5.8,0.5-12.3,2-19.9,4.5c-13.5-0.7-22.2-1.8-25.8-3.1c-3.6,2-6.3,3.1-8.3,3.2l-45.1,1.4l-5.4,2.9c-0.2-1.6-1.3-2.3-3.2-2.2
	l-2.5,0.2l-5.8,2.9c-0.2-1.6-4.9-2.9-14.3-4.2l-5.8,3.4l-11.2,0.9l-0.2-2.9c58.1-6.3,86.8-14.3,86.1-23.6c3.8-0.4,5.8,1.4,6.1,5.2
	l17-4.3l-0.5-5.2l-139.1,3.8c0.2,1.8-0.7,2.9-2.7,3.1l-17-1.4c-4.3,0.4-7.9,1.6-10.8,3.8l-6.3-2.3c-17.5,1.4-30.5,3.6-39.2,6.3
	c-11.9-0.9-25.1-0.7-39.7,0.5l-31.2,2.7l-14.4-1.6c-0.7-9.2,17.1-54.5,54-135.7c10.6-27.4,20.4-44.6,29.8-51.1
	c2-0.2,4.9,0.5,8.8,2.2l22.2-7.6l11.4,1.8c19.1-1.6,41.3-7,66.8-16.4c6.3-0.5,11-0.2,14.4,1.3l17-4l50.5-4.3
	c21.5-1.8,44.8-6.5,70-14.3l-0.5-5.2c-9.4,0.9-14.3-0.7-14.6-4.5c-0.5-7-7.4-9.9-20.6-8.8l-0.5-5.2l13.9-4l36.5-3.1l-0.5-5.2
	c-1.4,0.2-8.8,0-22.6-0.5l-0.5-5.6l14.1-1.3c3.8-0.4,5.4-2.2,5.1-5.8c-18.9,0.5-28.5-0.4-28.7-2.9c-132.1,6.5-198.3,7.8-198.7,3.6
	c-2,0.2-4.7,1.4-8.3,3.6l-3.4-5.4c35-74.4,55.6-111.9,61.5-112.4c0.2,2.9-1.3,7.6-4.3,13.9l0.2,2.3l5.6-0.5
	c13.9-33.2,25.6-50.3,35.4-51.1c41.5-3.6-5.8-6.3,83-20.2c3.6,1.6,6.1,2.3,7.9,2.2c34.8-7,83.4-14.4,145.6-22l-0.4-5.2l-33.2,3.1
	l-0.4-5.2c4-0.4,7.2-1.6,9.9-3.8l0.2,2.9c1.8-0.2,4.3-1.4,7.6-3.6c5.8-0.5,10.1,0,13.2,1.6c11.5-3.1,20.9-4.9,27.8-5.6l20.8-2
	c5.1-3.2,7.4-6.1,7.2-8.8l-0.2-2.3c-5.2,0.5-11.2,0.2-18.2-1.1c-0.2-2.9,1.3-4.9,4.7-5.8l38.6-3.6l17.7-4.5c0.2,2,1.1,2.7,2.5,2.7
	c1.8-0.2,4.3-1.4,7.6-3.6c0.9,0.2,2,0.2,2.9,0.4c-2.3,4.9-5.1,11.9-7.8,21.1l-5.1,0.4c-0.4-3.4-1.3-6.5-2.9-9.2l-2.5,0.2
	c-46.9,130.7-67.9,191.5-111.2,291.8c-7.9,25.6-14.6,39.9-20.4,43c0.2,2.9,2,4.3,5.1,4c1.1,12.6-1.8,25.1-8.8,37.4
	c-20,57.7-33.4,89.3-40.2,95.1l4.5,27.3c0.2,2.9-1.3,4.5-4.3,4.9l-4.7,0.4c-0.7-7.6-3.4-11.2-8.3-10.6l-2.5,0.2
	c-6.1,9.6-10.8,20.6-13.9,33.4l4.7-0.4c6.3-4.2,9.2-9,8.7-14.6l9.4-0.9l5.4,2c-4.3,6.9-6.3,12.3-6,16.4l2.5,4.3l-6.1,14.4l0.2,2.3
	c5.4-0.5,11.4,1.3,17.7,5.1c4.3-0.4,9-2.3,14.3-5.8c5.4-0.5,25.6-0.7,60.5-0.7l17.5-6c21.3-0.2,24.7,0.4,43.1-1.3l7.6-0.7l4-2.7
	l0.2,2.3c19.3-1.6,20.6-0.4,35.7,1.4l0.2,2.3l-10.6,0.9l0.4,4.5c3.2-0.4,6.1-1.3,8.5-3.2c2.7-0.2,4.3,1.3,4.5,4.5
	c-4.3,0.4-9.2,1.4-14.6,3.2l-4.7-1.6c-7.4,2-5.8,2.5-10.8,2.9l-7.4-1.4c0.2,1.3-0.5,2.2-1.8,2.2c0.2,2.9,1.8,4.3,4.5,4.2l7.6-0.7
	l39.5-3.4l15-3.2c0.2,1.3,0.7,2,2,1.8l7.2-2.7l13.5-1.1c10.5-0.9,10.3-1.6,33-5.2c-0.2-1.4,0.4-2,1.4-2.2l0.2,2
	c37-6.3,39.3-6.7,45.3-8.7l0.5,1.1c9.2-2.2,4-1.6,6.5-3.4c0.2,1.6,0.7,2.3,1.6,2.3l6.5-0.5l-0.4-4.9l-13.2-0.2l-0.2-0.4
	c-0.5,0.2-0.9,0.2-1.4,0.4h-1.8v0.4c-8.8,1.8-9,0.5-14.8,1.1l-33,1.8l-0.2-2.3l18.4-2.5l6.7-0.5l3.8-2.7l0.2,2.3
	c26-2.2,35.2,4.3,155.4-21.3c6.5-0.5,6-6,10.1-17.1c-2.2,0.2-4.3-0.4-6.3-1.4c-9.9,3.8-15.2,2-34.3,5.1c-1.6,0.2-2.9-1.3-3.4-4.2
	l-0.2-2l18.4,0.5c3.4-0.4,10.1-0.9,20-6.5C2415.5,1313.8,2411.7,1314.7,2413.9,1314.6L2413.9,1314.6z M1525.2,1328.8l-8.5,0.7
	c-0.4-3.4,4.2-16.4,13.5-38.6l5.6-0.5C1536.1,1295.6,1532.6,1308.4,1525.2,1328.8L1525.2,1328.8z M1535.5,1287.7l-0.2-2.3
	c-0.2-2.9,1.6-4.9,5.6-5.8l0.2,2.3C1541.3,1285.3,1539.5,1287.3,1535.5,1287.7z M1648.3,1374.8l0.2,2.3l-14.1,1.3l-0.2-2.3
	L1648.3,1374.8z M1631.4,1373.4c0.2,2.9-4.2,6.1-13.5,9.4l-17.3-1.3l-5.6,0.5l-0.5-5.2L1631.4,1373.4L1631.4,1373.4z M1745.4,848.4
	l-8.5,0.7l-0.2-2.9c-0.2-2.9,1.4-4.9,5.1-5.8l3.1-0.2l5.8,2.3C1750.8,846.1,1749.2,848,1745.4,848.4L1745.4,848.4z M1874.4,823.1
	l2.7-0.2l0.4,5.2l-7.8,0.7C1869.6,826,1871,824,1874.4,823.1L1874.4,823.1z M1842,834.5l-12.8-1.4l-0.2-2.3
	c16.8-1.4,22.4-3.2,32.7-6.1c0.2,2,2,2.7,5.2,2.3l0.4,5.2l-5.1,0.5c-4,0.4-7.4-0.2-10.3-1.8C1848.8,832.9,1845.6,834.2,1842,834.5z
	 M1858,881.3l-0.2-2.3l20.8-2l0.2,2.3L1858,881.3z M1880.2,863.2l-0.2-2.9l10.1-0.9l0.2,2.9L1880.2,863.2z M1882.6,827.8l-2.7,0.2
	l2.3-5.6l23.1-2.2l0.2,2.9C1899.5,823.7,1891.8,825.3,1882.6,827.8L1882.6,827.8z M1894.3,877.6l-0.4-5.2l10.1-0.9
	c3.4-0.4,5.2,1.3,5.4,4.9L1894.3,877.6z M1955.5,794.3l-13,3.6l-2.3,0.2c-6.1,0.5-14.1,0.4-23.5-0.5
	C1933.5,796.4,1949.5,795.2,1955.5,794.3z M1941.6,852l0.2,2.3l-17.9,1.6l-0.2-2.3L1941.6,852z M1970.8,865.9
	c-0.2-2.2-3.6-3.6-10.6-4.3l-17.9,5.1l-13.7,0.5c-3.1-2.2-4.7-3.6-4.9-4.7l15.9,0.9l35.7-5.8l18.2,0.7l0.2,2.9
	C1984.7,862.1,1977.1,863.7,1970.8,865.9L1970.8,865.9z M2154.7,818.5c2.2,0.2,3.6,0.2,4.2,0.2c6.3-6.1,13.4-11,21.5-14.4
	c-6.5,28.5-16.6,49.6-30.5,63.3l-10.1-6.1C2148.2,839.9,2153.3,825.7,2154.7,818.5L2154.7,818.5z M2123.7,871.7l2.5-0.2
	c-3.4,6.5-6.5,9.9-9,10.1l-0.5-6.9C2118.3,874.8,2120.6,873.7,2123.7,871.7z M2103.6,919.5c4.9-19.5,9.6-30.5,13.9-33.4l0.2,2.3
	c-2.5,18-6.5,27.6-11.7,28.3l0.9,11.4c-4.3,6.1-6.3,10.8-6.1,14.4l-2.5,0.2l-1.4-15.7C2099.7,926.7,2102,924.2,2103.6,919.5
	L2103.6,919.5z M2095.9,945.5c0.2,2.7-1.6,9-5.2,18.8l-2.5,0.2l-0.5-6.9C2091,949.7,2093.9,945.7,2095.9,945.5L2095.9,945.5z
	 M1950.2,1368.2l-0.2-2l4.7-0.4l0.5,6.9C1952.8,1372.8,1951,1371.4,1950.2,1368.2L1950.2,1368.2z M2158.3,1373.6
	c-0.2-1.6-0.9-2.3-2.5-2.2l-11.7,1.1l-0.2-2.3h1.1l27.8-2.3l0.2,2.3C2164.8,1370.5,2159.9,1371.8,2158.3,1373.6z M2144.4,1367.8
	c1.1,0.5,0.5,1.1,0,1.4C2143.9,1369.1,2143.2,1368.5,2144.4,1367.8z M2145.9,1335.3l-15.5,1.3l-0.2-2.3l14.1-1.3l12.3-3.1
	c0.2,1.4,0.9,2,2.5,1.8c14.6-2.5,13.2-3.2,20.2-3.8c2.3-0.2,3.8,1.3,4,4.2L2145.9,1335.3L2145.9,1335.3z M2200.2,1330.6
	c-8.7-0.9-9.2-1.6-15.3-1.1l-0.2-2l13.9-1.3l0.2,2C2197.3,1328.4,2202.5,1328.8,2200.2,1330.6L2200.2,1330.6z M2201.3,1328.1l-0.2-2
	l7.6-0.7l0.2,2L2201.3,1328.1z M2218.1,1326.6l-0.2-2c1.3-0.2,3.1-1.1,5.4-2.9c3.8-0.4,5.8,2.2,6.1,5.1L2218.1,1326.6L2218.1,1326.6
	z M2239.5,1323.9l-0.2-2.3l9.2-0.7l0.2,2.3L2239.5,1323.9z M2252.3,1322.9c-0.2-2.7,0.9-4.3,3.2-4.7l3.1,4c-0.2-1.3,0.4-2,1.4-2.2
	l2.3,4.3L2252.3,1322.9L2252.3,1322.9z M2429.9,1301.9l0.2-0.2v-0.2C2430.1,1301.6,2429.9,1301.7,2429.9,1301.9z M2433.2,1299.6
	c1.4-0.9,2.2-1.8-1.3-2.3c-1.6,1.8,1.8,2.3-1.8,2.5l0.2,1.6c0.4-0.4,1.3-0.9,2-1.4l-2,1.6v0.2l-3.8,4.9l7.6-2.7h0.9l-0.4-4.5
	L2433.2,1299.6L2433.2,1299.6z M2446.3,1309.9l-1.4,0.2l0.4,4.5l10.6-0.9C2455.7,1310.8,2448.7,1309.9,2446.3,1309.9L2446.3,1309.9z
	"/>
</svg>
