<?xml version="1.0" encoding="utf-8"?>
<!-- Generator: Adobe Illustrator 24.0.0, SVG Export Plug-In . SVG Version: 6.00 Build 0)  -->
<svg version="1.1" id="Layer_2" xmlns="http://www.w3.org/2000/svg" xmlns:xlink="http://www.w3.org/1999/xlink" x="0px" y="0px"
	 viewBox="0 0 2488 2500" style="enable-background:new 0 0 2488 2500;" xml:space="preserve">
<style type="text/css">
	.st0{fill:#FED136;}
</style>
<path class="st0" d="M2407.7,1143.1L1350.1,85.6c-60.9-60.9-159.6-60.9-220.6,0L909.9,305.2l278.6,278.6
	c64.8-21.9,139-7.2,190.6,44.4c51.9,51.9,66.4,126.8,44,191.8l268.5,268.5c65-22.4,139.9-7.9,191.8,44c72.5,72.5,72.5,190,0,262.5
	c-72.5,72.5-190,72.5-262.6,0c-54.5-54.6-68-134.7-40.4-201.9L1330,942.7l0,658.9c17.7,8.8,34.4,20.4,49.1,35.1
	c72.5,72.5,72.5,189.9,0,262.5c-72.5,72.5-190,72.5-262.5,0c-72.5-72.6-72.5-190,0-262.5c17.9-17.9,38.7-31.4,60.8-40.5v-665
	c-22.1-9-42.8-22.5-60.8-40.5c-54.9-54.9-68.1-135.5-40-202.9L802,413.1L76.9,1138.2c-60.9,61-60.9,159.7,0,220.6l1057.6,1057.5
	c60.9,60.9,159.6,60.9,220.6,0l1052.7-1052.5C2468.6,1302.9,2468.6,1204.1,2407.7,1143.1"/>
</svg>
