<?xml version="1.0" encoding="utf-8"?>
<!-- Generator: Adobe Illustrator 24.0.0, SVG Export Plug-In . SVG Version: 6.00 Build 0)  -->
<svg version="1.1" xmlns="http://www.w3.org/2000/svg" xmlns:xlink="http://www.w3.org/1999/xlink" x="0px" y="0px"
	 viewBox="0 0 2488 2500" style="enable-background:new 0 0 2488 2500;" xml:space="preserve">
<style type="text/css">
	.st0{display:none;}
	.st1{fill:#FFFFFF;}
	.st2{display:inline;fill:#FED136;}
	.st3{fill:#FED136;}
</style>
<g id="Layer_4" class="st0">
	<path class="st1" d="M1242.3-186.4l1270.4,718.6v1437.5l-1270.4,718.6L-28.2,1969.7V532.2L1242.3-186.4z"/>
	<path class="st2" d="M2285.9,1920.1l-1001.6,566.6v-441.2l624.1-343.4L2285.9,1920.1L2285.9,1920.1z M2354.5,1858.1V673.3
		l-366.4,211.7v761.6L2354.5,1858.1L2354.5,1858.1z M194.7,1920.1l1001.6,566.6v-441.2l-624.4-343.4L194.7,1920.1z M126.1,1858.1
		V673.3l366.4,211.7v761.6L126.1,1858.1z M169.1,596.5l1027.2-581v426.4L538.1,804l-5.3,3C532.9,806.9,169.1,596.5,169.1,596.5z
		 M2311.5,596.5l-1027.2-581v426.4l658.2,361.8l5.3,3L2311.5,596.5L2311.5,596.5z"/>
	<path class="st2" d="M1196.3,1945.1l-615.8-338.8V935.6l615.8,355.5V1945.1z M1284.3,1945.1l615.8-338.5v-671l-615.8,355.5V1945.1z
		 M622.2,858.2l618.1-339.8l618.1,339.8L1240.3,1215L622.2,858.2L622.2,858.2z"/>
</g>
<g id="Layer_2">
	<path class="st3" d="M2407.7,1143.1L1350.1,85.6c-60.9-60.9-159.6-60.9-220.6,0L909.9,305.2l278.6,278.6
		c64.8-21.9,139-7.2,190.6,44.4c51.9,51.9,66.4,126.8,44,191.8l268.5,268.5c65-22.4,139.9-7.9,191.8,44c72.5,72.5,72.5,190,0,262.5
		c-72.5,72.5-190,72.5-262.6,0c-54.5-54.6-68-134.7-40.4-201.9L1330,942.7l0,658.9c17.7,8.8,34.4,20.4,49.1,35.1
		c72.5,72.5,72.5,189.9,0,262.5c-72.5,72.5-190,72.5-262.5,0c-72.5-72.6-72.5-190,0-262.5c17.9-17.9,38.7-31.4,60.8-40.5v-665
		c-22.1-9-42.8-22.5-60.8-40.5c-54.9-54.9-68.1-135.5-40-202.9L802,413.1L76.9,1138.2c-60.9,61-60.9,159.7,0,220.6l1057.6,1057.5
		c60.9,60.9,159.6,60.9,220.6,0l1052.7-1052.5C2468.6,1302.9,2468.6,1204.1,2407.7,1143.1"/>
</g>
</svg>
