<?xml version="1.0" encoding="utf-8"?>
<!-- Generator: Adobe Illustrator 24.0.0, SVG Export Plug-In . SVG Version: 6.00 Build 0)  -->
<svg version="1.1" xmlns="http://www.w3.org/2000/svg" xmlns:xlink="http://www.w3.org/1999/xlink" x="0px" y="0px"
	 viewBox="0 0 2488 2500" style="enable-background:new 0 0 2488 2500;" xml:space="preserve">
<style type="text/css">
	.st0{display:none;}
	.st1{display:inline;fill:#FED136;}
	.st2{fill-rule:evenodd;clip-rule:evenodd;fill:#FED136;}
	.st3{fill:#FED136;}
</style>
<g id="Layer_1" class="st0">
	<path class="st1" d="M885.7,1530.2L269,2010.8l-269-134V624.3l267.9-135l612.4,481.7L1850.1,0.2L2488,254.3v1987.2l-634.8,258.4
		L885.7,1530.2z M1830.9,1699.2V800.8l-580.5,449.8L1830.9,1699.2L1830.9,1699.2z M290.3,1537.6l305.2-277.5L290.3,956V1537.6z"/>
</g>
<g id="Layer_2">
	<g>
		<path class="st2" d="M1242.3,74C576,74,35.7,614.1,35.7,1280.5c0,533.1,345.7,985.3,825.1,1144.9c60.3,11.2,82.4-26.2,82.4-58
			c0-28.8-1.1-123.8-1.6-224.6c-335.7,73-406.5-142.4-406.5-142.4c-54.9-139.4-134-176.5-134-176.5c-109.5-74.9,8.3-73.3,8.3-73.3
			c121.1,8.5,185,124.3,185,124.3c107.6,184.4,282.3,131.1,351.1,100.3c10.8-78,42.1-131.2,76.6-161.3
			c-268-30.5-549.7-134-549.7-596.3c0-131.7,47.1-239.4,124.3-323.9c-12.5-30.4-53.8-153.1,11.7-319.3c0,0,101.3-32.4,331.9,123.7
			c96.3-26.7,199.5-40.1,302-40.6c102.5,0.5,205.8,13.9,302.3,40.6C1774.8,541.9,1876,574.3,1876,574.3
			c65.7,166.2,24.4,288.9,11.8,319.3c77.4,84.5,124.2,192.1,124.2,323.9c0,463.4-282.3,565.4-550.9,595.3
			c43.3,37.4,81.8,110.9,81.8,223.4c0,161.4-1.4,291.4-1.4,331.1c0,32.1,21.7,69.7,82.9,57.9c479.1-159.7,824.4-611.8,824.4-1144.7
			C2448.8,614.1,1908.6,74,1242.3,74z"/>
		<path class="st3" d="M492.7,1806.3c-2.7,6-12.1,7.8-20.7,3.7c-8.8-3.9-13.7-12.1-10.8-18.1c2.6-6.2,12-7.9,20.8-3.8
			C490.8,1792,495.7,1800.3,492.7,1806.3L492.7,1806.3z M477.9,1795.3"/>
		<path class="st3" d="M541.6,1860.8c-5.8,5.3-17,2.8-24.6-5.6c-7.9-8.4-9.4-19.7-3.5-25.1c5.9-5.3,16.8-2.8,24.7,5.6
			C546.1,1844.2,547.6,1855.4,541.6,1860.8L541.6,1860.8z M530.1,1848.4"/>
		<path class="st3" d="M589.2,1930.3c-7.4,5.2-19.5,0.3-27-10.4c-7.4-10.7-7.4-23.6,0.2-28.8c7.5-5.2,19.4-0.5,27,10.1
			C596.7,1912.1,596.7,1925,589.2,1930.3L589.2,1930.3z M589.2,1930.3"/>
		<path class="st3" d="M654.3,1997.4c-6.6,7.3-20.7,5.3-31-4.6c-10.6-9.7-13.5-23.5-6.9-30.8c6.7-7.3,20.9-5.2,31.3,4.6
			C658.2,1976.3,661.4,1990.2,654.3,1997.4L654.3,1997.4z M654.3,1997.4"/>
		<path class="st3" d="M744.2,2036.4c-2.9,9.4-16.5,13.7-30.1,9.7c-13.7-4.1-22.6-15.2-19.8-24.7c2.8-9.5,16.5-14,30.2-9.7
			C738.1,2015.8,747.1,2026.8,744.2,2036.4L744.2,2036.4z M744.2,2036.4"/>
		<path class="st3" d="M843,2043.6c0.3,9.9-11.3,18.2-25.6,18.4c-14.4,0.3-26.1-7.7-26.3-17.5c0-10,11.3-18.2,25.8-18.5
			C831.2,2025.7,843,2033.7,843,2043.6L843,2043.6z M843,2043.6"/>
		<path class="st3" d="M934.9,2028c1.7,9.7-8.3,19.7-22.5,22.3c-14,2.6-27-3.4-28.8-13.1c-1.7-9.9,8.4-19.9,22.4-22.5
			C920.3,2012.3,933.1,2018.1,934.9,2028L934.9,2028z M934.9,2028"/>
	</g>
</g>
</svg>
