<?xml version="1.0" encoding="utf-8"?>
<!-- Generator: Adobe Illustrator 24.0.0, SVG Export Plug-In . SVG Version: 6.00 Build 0)  -->
<svg version="1.1" xmlns="http://www.w3.org/2000/svg" xmlns:xlink="http://www.w3.org/1999/xlink" x="0px" y="0px"
	 viewBox="0 0 2488 2500" style="enable-background:new 0 0 2488 2500;" xml:space="preserve">
<style type="text/css">
	.st0{fill:#FED136;}
	.st1{display:none;}
	.st2{display:inline;fill:#FED136;}
</style>
<g id="Layer_3">
	<g transform="translate(-11.56225 -11.12422)">
		<path class="st0" d="M489.8,1517.2c-13.8,0-27.4-5.4-37.6-15.6L138,1187.5v276.7c0,29.3-23.8,53.1-53.1,53.1s-53.1-23.8-53.1-53.1
			v-404.9c0-21.5,12.9-40.8,32.8-49c19.8-8.2,42.7-3.7,57.9,11.5L436.7,1336v-276.7c0-29.3,23.8-53.1,53.1-53.1
			c29.3,0,53.1,23.8,53.1,53.1v404.9c0,21.5-12.9,40.8-32.8,49C503.5,1515.9,496.6,1517.2,489.8,1517.2z"/>
		<path class="st0" d="M735.6,1006.7l-14.6,27.2L608.2,1239l-14.6,25.9l14.6,25.9L721,1489.2l15.3,27.2h31.2h230.9h33.2l14.6-29.9
			l84.3-169.9l37.8-77h-85.6l-215.7,0.7c-28-0.4-53.8,25-53.8,53.1c0,28.1,25.8,53.5,53.8,53.1l130.1-0.7l-31.9,64.4H798l-83-146
			l83.6-151.3h177.9l41.5,85.1h106.8l-67.4-161.4l-14.6-29.9h-33.2H767.5H735.6z"/>
		<path class="st0" d="M1273.4,1006.1c-27.8,0.3-52.8,26-52.4,53.8v138.3h106.2v-138.3C1327.5,1031.6,1301.7,1005.7,1273.4,1006.1z"
			/>
		<path class="st0" d="M1443.6,1518.3c-6.8,0-13.7-1.3-20.3-4c-19.8-8.2-32.8-27.6-32.8-49v-404.9c0-29.3,23.8-53.1,53.1-53.1
			s53.1,23.8,53.1,53.1V1337l314.2-314.2c15.1-15.2,38-19.8,57.9-11.5c19.8,8.2,32.8,27.6,32.8,49v404.9c0,29.3-23.8,53.1-53.1,53.1
			s-53.1-23.8-53.1-53.1v-276.7l-314.2,314.2C1471,1512.9,1457.5,1518.3,1443.6,1518.3z"/>
		<path class="st0" d="M2422,1517.1c-13.6,0-27.1-5.2-37.5-15.5l-405.3-403.9c-20.8-20.7-20.8-54.3-0.1-75.1
			c20.7-20.8,54.3-20.8,75.1-0.1l405.3,403.9c20.8,20.7,20.8,54.3,0.1,75.1C2449.3,1511.9,2435.7,1517.1,2422,1517.1z"/>
		<path class="st0" d="M2017.2,1517.1c-13.6,0-27.2-5.2-37.6-15.6c-20.7-20.8-20.7-54.4,0.1-75.1l405.3-403.9
			c20.8-20.7,54.4-20.6,75.1,0.1c20.7,20.8,20.6,54.4-0.1,75.1l-405.3,403.9C2044.3,1512,2030.8,1517.1,2017.2,1517.1z"/>
		<path class="st0" d="M1273.4,1516.7c-27.8-0.3-52.8-26-52.4-53.8v-222.2h106.2V1463C1327.5,1491.2,1301.7,1517.1,1273.4,1516.7z"
			/>
	</g>
</g>
<g id="Layer_2" class="st1">
	<path class="st2" d="M1242.3,994.9c-141.4,0-256,114.6-256,256s114.6,256,256,256c141.4,0,256-114.6,256-256l0,0
		C1498.3,1109.6,1383.7,994.9,1242.3,994.9z M1300.5,1088.5c9.1-15.8,29.4-21.2,45.2-12.1c15.8,9.1,21.2,29.4,12.1,45.2
		c-9.1,15.8-29.4,21.2-45.2,12.1C1296.8,1124.5,1291.3,1104.3,1300.5,1088.5z M1076.3,1284c-18.3,0-33.1-14.8-33.1-33.1
		c0-18.3,14.8-33.1,33.1-33.1c18.3,0,33.1,14.8,33.1,33.1C1109.4,1269.2,1094.6,1284,1076.3,1284z M1105.7,1287
		c10.5-8.5,17.1-21.5,17.1-36c0-14.5-6.7-27.5-17.1-36c8.9-34.6,30.5-64.2,59.4-83.6l24.2,40.5c-24.8,17.5-41.1,46.4-41.1,79.1
		c0,32.7,16.2,61.6,41.1,79.1l-24.2,40.5C1136.2,1351.2,1114.6,1321.6,1105.7,1287z M1345.7,1425.5c-15.8,9.1-36.1,3.7-45.2-12.1
		c-9.1-15.8-3.7-36,12.1-45.2c15.8-9.1,36-3.7,45.2,12.1C1366.9,1396.2,1361.5,1416.4,1345.7,1425.5z M1345.6,1353.4
		c-12.6-4.8-27.1-4-39.7,3.2c-12.6,7.3-20.5,19.5-22.6,32.8c-12.2,3.4-25.1,5.2-38.4,5.2c-22.9,0-44.5-5.4-63.7-14.9l23-41.2
		c12.4,5.8,26.2,9,40.7,9v0c50.5,0,91.9-38.7,96.2-88.1l47.2,0.7C1385.9,1296.6,1370,1329.4,1345.6,1353.4z M1341.1,1242.4
		c-4.3-49.4-45.8-88.1-96.2-88.1v0c-14.5,0-28.3,3.2-40.7,9l-23-41.2c19.2-9.5,40.8-14.9,63.7-14.9c13.3,0,26.2,1.8,38.4,5.2
		c2.2,13.3,10.1,25.5,22.6,32.8c12.6,7.3,27.1,8,39.7,3.2c24.5,24.1,40.4,56.8,42.7,93.2L1341.1,1242.4z"/>
</g>
</svg>
