<svg width="512" height="512" xmlns="http://www.w3.org/2000/svg">

 <g>
  <title>background</title>
  <rect fill="none" id="canvas_background" height="402" width="582" y="-1" x="-1"/>
 </g>
 <g>
  <title>Layer 1</title>
  <path fill="#fed136" id="svg_2" d="m0,0l0,512l512,0l0,-512l-512,0zm489.471,489.475l-466.946,0l0,-466.946l466.945,0l0,466.946l0.001,0z"/>
  <path fill="#fed136" id="XMLID_141_" d="m133.632,124.705c0,-1.761 0.304,-2.466 1.816,-2.466c11.513,-0.35 34.237,-0.705 57.263,-0.705c59.38,0 82.033,34.55 82.332,75.415c0,56.009 -41.735,77.239 -86.272,77.239c-8.48,0 -16.662,0 -18.784,0l0,80.021c0,2.11 -0.607,2.815 -2.12,2.815l-32.116,0c-1.515,0 -2.12,-0.705 -2.12,-2.466l0,-229.853l0.001,0zm36.355,115.316c2.423,0.354 6.968,0.705 19.694,0.705c23.934,0 46.959,-6.824 46.959,-42.051c0,-28.18 -15.453,-42.655 -43.93,-42.655c-11.816,0 -20.301,0.355 -22.724,0.706l0,83.295l0.001,0z"/>
  <path fill="#fed136" id="XMLID_91_" d="m382.543,179.761c1.265,-0.068 2.854,0 4.124,0.354c1.589,0.35 1.906,0.705 1.906,3.521l0,30.551c0,1.76 -0.638,2.466 -2.538,2.466c-18.095,-0.706 -26.646,-1.274 -39.569,4.017l0,132.512c0,2.116 -0.637,2.816 -2.538,2.816l-33.321,0c-1.904,0 -2.542,-0.7 -2.542,-2.816l0,-118.707c0,-15.5 -0.638,-27.201 -1.586,-38.825c-0.316,-1.411 0.316,-2.115 1.906,-2.115c0,0 30.692,-11.432 74.158,-13.774z"/>
 </g>
</svg>