<svg width="512" height="512" xmlns="http://www.w3.org/2000/svg">

 <g>
  <title>background</title>
  <rect fill="none" id="canvas_background" height="402" width="582" y="-1" x="-1"/>
 </g>
 <g>
  <title>Layer 1</title>
  <path fill="#fed136" id="svg_1" d="m504.272,7.951l0,496.49l-494.88,0l0,-496.49l494.88,0m-20,20l-454.88,0l0,456.49l454.88,0l0,-456.49z"/>
  <path fill="#fed136" id="svg_3" d="m84.8,112.58c18.138,-3.3 42.725,-5.775 75.775,-5.775c36.275,0 62.474,7.837 79.804,22.686c16.123,13.612 26.603,35.473 26.603,61.457c0,26.398 -8.061,47.846 -22.974,62.694c-20.153,20.211 -50.785,30.112 -85.852,30.112c-9.27,0 -17.331,-0.414 -24.183,-2.064l0,104.145l-49.173,0l0,-273.255zm49.173,129.1c6.449,2.063 14.107,2.476 24.183,2.476c37.082,0 59.653,-18.974 59.653,-51.146c0,-30.934 -20.959,-47.021 -55.219,-47.021c-13.705,0 -23.378,1.238 -28.618,2.475l0,93.216l0.001,0z"/>
  <path fill="#fed136" id="svg_4" d="m292.561,334.678c10.883,7.011 32.246,14.848 49.979,14.848c21.766,0 31.438,-7.418 31.438,-20.617c0,-13.612 -8.062,-20.21 -32.245,-29.285c-38.29,-13.2 -54.009,-34.646 -54.009,-58.569c0,-35.473 28.617,-62.695 74.163,-62.695c21.764,0 40.709,5.362 52.396,11.961l-10.077,35.472c-8.061,-4.949 -24.183,-11.548 -41.514,-11.548c-17.734,0 -27.408,9.074 -27.408,21.447c0,12.787 9.27,18.561 34.26,28.048c35.872,12.787 51.995,31.347 52.397,61.044c0,36.711 -27.813,61.04 -79.806,61.04c-23.779,0 -45.143,-5.775 -59.651,-14.025l10.077,-37.121z"/>
 </g>
</svg>