<svg width="512" height="512" xmlns="http://www.w3.org/2000/svg">

 <g>
  <title>background</title>
  <rect fill="none" id="canvas_background" height="402" width="582" y="-1" x="-1"/>
 </g>
 <g>
  <title fill="#fed136">Layer 1</title>
  <path id="svg_2" fill="#fed136" d="m122.643,316.682c0,26.596 -21.727,48.323 -48.321,48.323c-26.593,0 -48.319,-21.728 -48.319,-48.323c0,-26.592 21.727,-48.318 48.319,-48.318l48.321,0l0,48.318z"/>
  <path id="svg_3" fill="#fed136" d="m146.996,316.682c0,-26.592 21.728,-48.318 48.321,-48.318c26.593,0 48.32,21.727 48.32,48.318l0,120.998c0,26.592 -21.728,48.319 -48.32,48.319c-26.594,0 -48.321,-21.728 -48.321,-48.319l0,-120.998z"/>
  <path id="svg_4" fill="#fed136" d="m195.317,122.643c-26.594,0 -48.321,-21.728 -48.321,-48.321c0,-26.593 21.728,-48.32 48.321,-48.32c26.593,0 48.32,21.728 48.32,48.32l0,48.321l-48.32,0l0,0z"/>
  <path id="svg_5" fill="#fed136" d="m195.317,146.997c26.593,0 48.32,21.727 48.32,48.321c0,26.593 -21.728,48.318 -48.32,48.318l-120.996,0c-26.593,0 -48.319,-21.726 -48.319,-48.318c0,-26.595 21.727,-48.321 48.319,-48.321l120.996,0l0,0z"/>
  <path id="svg_6" fill="#fed136" d="m389.359,195.318c0,-26.595 21.725,-48.321 48.32,-48.321c26.593,0 48.318,21.727 48.318,48.321c0,26.593 -21.726,48.318 -48.318,48.318l-48.32,0l0,-48.318l0,0z"/>
  <path id="svg_7" fill="#fed136" d="m365.004,195.318c0,26.593 -21.728,48.318 -48.321,48.318c-26.593,0 -48.32,-21.726 -48.32,-48.318l0,-120.997c0,-26.593 21.728,-48.32 48.32,-48.32c26.594,0 48.321,21.728 48.321,48.32l0,120.997l0,0z"/>
  <path id="svg_8" fill="#fed136" d="m316.683,389.358c26.594,0 48.321,21.727 48.321,48.321c0,26.592 -21.728,48.319 -48.321,48.319c-26.593,0 -48.32,-21.728 -48.32,-48.319l0,-48.321l48.32,0z"/>
  <path id="svg_9" fill="#fed136" d="m316.683,365.005c-26.593,0 -48.32,-21.728 -48.32,-48.323c0,-26.592 21.728,-48.318 48.32,-48.318l120.997,0c26.593,0 48.318,21.727 48.318,48.318c0,26.596 -21.726,48.323 -48.318,48.323l-120.997,0z"/>
 </g>
</svg>