<?xml version="1.0" encoding="utf-8"?>
<!-- Generator: Adobe Illustrator 24.0.0, SVG Export Plug-In . SVG Version: 6.00 Build 0)  -->
<svg version="1.1" id="Layer_2" xmlns="http://www.w3.org/2000/svg" xmlns:xlink="http://www.w3.org/1999/xlink" x="0px" y="0px"
	 viewBox="0 0 2488 2500" style="enable-background:new 0 0 2488 2500;" xml:space="preserve">
<style type="text/css">
	.st0{fill:#FED136;}
</style>
<path class="st0" d="M1242.3,26.5C566.1,26.5,17.9,574.7,17.9,1250.9s548.2,1224.4,1224.4,1224.4s1224.4-548.2,1224.4-1224.4v0
	C2466.7,574.7,1918.5,26.5,1242.3,26.5z M1520.6,473.9c43.7-75.7,140.4-101.6,216.1-57.9c75.7,43.7,101.6,140.4,57.9,216.1
	c-43.7,75.7-140.4,101.6-216.1,57.9C1502.8,646.3,1476.9,549.5,1520.6,473.9z M448.6,1409.2c-87.4,0-158.2-70.8-158.2-158.2
	c0-87.4,70.8-158.2,158.2-158.2c87.4,0,158.2,70.8,158.2,158.2C606.9,1338.3,536,1409.2,448.6,1409.2z M588.9,1423.3
	c50-40.7,81.9-102.8,81.9-172.3c0-69.6-31.9-131.6-81.9-172.3C631.7,912.9,734.8,771.5,873.2,679l115.7,193.8
	c-118.8,83.6-196.6,221.8-196.6,378.2c0,156.4,77.7,294.5,196.6,378.2l-115.7,193.8C734.7,1730.4,631.7,1589,588.9,1423.3z
	 M1736.7,2085.9c-75.7,43.7-172.4,17.8-216.1-57.9c-43.7-75.7-17.8-172.4,57.9-216.1c75.7-43.7,172.4-17.8,216.1,57.9
	C1838.3,1945.5,1812.4,2042.3,1736.7,2085.9z M1736.3,1741.1c-60.2-22.7-129.7-19.3-189.7,15.4c-60.2,34.7-97.9,93.3-108.3,156.9
	c-58.5,16.2-120,25-183.7,25c-109.4,0-212.8-25.7-304.7-71.2l110-197c59.2,27.5,125.1,43,194.7,43v0
	c241.5,0,439.6-185.1,460.3-421.3l225.5,3.3C1929.4,1469.5,1853.3,1626.1,1736.3,1741.1z M1715,1209.9
	c-20.8-236.1-218.9-421.3-460.3-421.3v0c-69.6,0-135.5,15.5-194.7,43l-110-197c91.8-45.5,195.2-71.2,304.7-71.2
	c63.6,0,125.2,8.8,183.6,25c10.3,63.6,48.1,122.1,108.2,156.9c60.1,34.7,129.6,38.1,189.7,15.4c117,115,193.2,271.6,204.3,445.9
	L1715,1209.9z"/>
</svg>
