<?xml version="1.0" encoding="utf-8"?>
<!-- Generator: Adobe Illustrator 24.0.0, SVG Export Plug-In . SVG Version: 6.00 Build 0)  -->
<svg version="1.1" id="Layer_4" xmlns="http://www.w3.org/2000/svg" xmlns:xlink="http://www.w3.org/1999/xlink" x="0px" y="0px"
	 viewBox="0 0 2488 2500" style="enable-background:new 0 0 2488 2500;" xml:space="preserve">
<style type="text/css">
	.st0{display:none;fill:#FFFFFF;}
	.st1{fill:#FED136;}
</style>
<path class="st0" d="M1242.3-186.4l1270.4,718.6v1437.5l-1270.4,718.6L-28.2,1969.7V532.2L1242.3-186.4z"/>
<path class="st1" d="M2285.9,1920.1l-1001.6,566.6v-441.2l624.1-343.4L2285.9,1920.1L2285.9,1920.1z M2354.5,1858.1V673.3
	l-366.4,211.7v761.6L2354.5,1858.1L2354.5,1858.1z M194.7,1920.1l1001.6,566.6v-441.2l-624.4-343.4L194.7,1920.1z M126.1,1858.1
	V673.3l366.4,211.7v761.6L126.1,1858.1z M169.1,596.5l1027.2-581v426.4L538.1,804l-5.3,3C532.9,806.9,169.1,596.5,169.1,596.5z
	 M2311.5,596.5l-1027.2-581v426.4l658.2,361.8l5.3,3L2311.5,596.5L2311.5,596.5z"/>
<path class="st1" d="M1196.3,1945.1l-615.8-338.8V935.6l615.8,355.5V1945.1z M1284.3,1945.1l615.8-338.5v-671l-615.8,355.5V1945.1z
	 M622.2,858.2l618.1-339.8l618.1,339.8L1240.3,1215L622.2,858.2L622.2,858.2z"/>
</svg>
