<?xml version="1.0" encoding="utf-8"?>
<!-- Generator: Adobe Illustrator 24.0.0, SVG Export Plug-In . SVG Version: 6.00 Build 0)  -->
<svg version="1.1" id="Layer_1" xmlns="http://www.w3.org/2000/svg" xmlns:xlink="http://www.w3.org/1999/xlink" x="0px" y="0px"
	 viewBox="0 0 32 32" style="enable-background:new 0 0 32 32;" xml:space="preserve">
<style type="text/css">
	.st0{fill:#FED136;}
</style>
<rect x="0" class="st0" width="32" height="32"/>
<path d="M24.1,7.1C24,6.5,23.7,6,23.4,5.5c-0.3-0.5-0.7-0.8-1.2-1.1C21.8,4.1,19.7,4,19,4c-1.5,0-2,0-3.6,0.8
	c-1,0.5-1.8,1.2-2.6,2.1s-1.5,1.8-2.1,2.9S9.6,12,9.2,13.2s-0.8,2.4-1,3.6s-0.4,2.3-0.4,3.3c0,1.1,0.1,2.1,0.3,3.1s0.6,1.8,1.1,2.5
	s1.1,1.3,1.8,1.7c0.7,0.4,1.5,0.6,2.3,0.6c0.1,0,0.8,0,1,0c0.1,0,0.8,0,1,0c0.7,0,1.3-0.1,1.9-0.4c0.6-0.3,1.2-0.7,1.7-1.1
	s1-1,1.4-1.6c0.4-0.6,0.8-1.2,1.1-1.7c0.1-0.2,0.1-0.4,0.1-0.6c0-0.2-0.1-0.3-0.2-0.4s-2.2-0.1-2.4,0s-0.3,0.2-0.4,0.4
	c-0.2,0.3-0.4,0.7-0.7,1.1s-0.7,0.8-1.1,1.2c-0.4,0.4-0.9,0.7-1.4,0.9c-0.2,0.1-0.4,0.1-0.6,0.2c-0.1,0-0.2-0.1-0.2-0.1
	c-0.4-0.2-0.7-0.5-1-0.9s-0.5-1-0.7-1.6s-0.2-1.5-0.2-2.4c0.1-2.1,0.4-4.1,0.9-6c0.5-1.9,1.2-3.5,1.9-5c0.8-1.4,1.6-2.5,2.5-3.4
	c0.5-0.4,0.9-0.8,1.4-1c0.1,0.1,0.2,0.1,0.2,0.2c0.3,0.3,0.5,0.8,0.4,1.5c-0.1,0.7-0.2,1.4-0.3,1.9c-0.1,0.5-0.3,1-0.6,1.5
	c-0.3,0.5-0.6,0.8-1.1,1c0.2,0.4,0.3,0.7,0.5,0.9c0.2,0.2,0.3,0.4,0.5,0.5c2.1,1,3.6,0,3.7-0.2c0.3-0.2,0.6-0.6,0.8-1
	c0.2-0.4,0.4-0.9,0.5-1.4c0.1-0.5,0.2-1.1,0.2-1.6C24.2,8.2,24.2,7.7,24.1,7.1z"/>
</svg>
